<svg xmlns="http://www.w3.org/2000/svg" xmlns:xlink="http://www.w3.org/1999/xlink" width="1322" zoomAndPan="magnify" viewBox="0 0 991.5 570.749988" height="761" preserveAspectRatio="xMidYMid meet" version="1.0"><defs><g/><clipPath id="0198901df9"><path d="M 33.710938 118 L 262 118 L 262 404 L 33.710938 404 Z M 33.710938 118 " clip-rule="nonzero"/></clipPath><clipPath id="a7c6732611"><path d="M 472 0.0195312 L 990.980469 0.0195312 L 990.980469 479.777344 L 472 479.777344 Z M 472 0.0195312 " clip-rule="nonzero"/></clipPath></defs><g clip-path="url(#0198901df9)"><path fill="#5005f2" d="M 147.660156 298.222656 C 147.660156 298.222656 140.921875 304.664062 140.648438 309.007812 C 140.597656 310.117188 140.777344 311.191406 141.1875 312.226562 C 141.414062 312.742188 141.871094 313.792969 142.804688 314.375 C 144.316406 315.332031 146.339844 314.636719 147.117188 314.375 C 153.882812 312.136719 146.589844 316.878906 161.136719 311.152344 C 175.945312 305.300781 187.554688 299.292969 187.554688 299.292969 C 200.6875 292.496094 207.253906 289.101562 211.277344 285.816406 C 215.367188 282.472656 220.632812 280.535156 224.214844 276.652344 C 224.898438 275.910156 226.71875 273.835938 229.066406 273.953125 C 230.578125 274.03125 231.742188 275.082031 232.285156 275.570312 C 233.894531 277.003906 234.515625 278.660156 234.980469 279.886719 C 238.003906 287.84375 236.96875 283.746094 238.203125 287.972656 C 240.894531 297.074219 242.238281 301.632812 243.054688 307.382812 C 243.769531 312.53125 244.820312 319.785156 243.59375 328.945312 C 243.015625 333.269531 241.34375 344.808594 233.351562 356.441406 C 227.546875 364.894531 221.015625 369.597656 212.324219 375.851562 C 207.898438 379.128906 203.226562 382.003906 198.308594 384.476562 C 196.671875 385.292969 190.152344 388.488281 177.28125 392.023438 C 171.914062 393.5 167.125 394.574219 151.402344 397.417969 C 136.980469 400.027344 129.769531 401.328125 126.601562 401.710938 C 108.394531 404.007812 94.394531 403.601562 86.164062 403.328125 C 77.574219 403.042969 70.746094 402.417969 63.519531 401.183594 C 52.613281 399.304688 47.058594 398.28125 42.496094 394.175781 C 34.980469 387.425781 34.164062 377.355469 33.867188 373.6875 C 33.207031 365.457031 35.539062 359.207031 37.644531 353.738281 C 39.921875 347.824219 42.296875 344.292969 49.503906 333.792969 C 59.109375 319.808594 63.90625 312.816406 65.140625 311.148438 C 67.84375 307.484375 76.375 296.035156 89.398438 280.957031 C 102.019531 266.347656 111.832031 256.457031 124.445312 243.738281 C 125.769531 242.40625 144.070312 224.007812 156.25 213.546875 C 158.28125 211.804688 166.742188 205.007812 169.726562 202.226562 C 170.929688 201.109375 172.171875 199.792969 173.503906 199.007812 C 174.273438 198.542969 174.859375 197.800781 175.652344 197.390625 C 175.898438 197.277344 176.078125 197.097656 176.1875 196.847656 C 176.25 196.667969 176.25 196.492188 176.1875 196.3125 C 176.140625 196.179688 176.050781 196.035156 175.652344 195.769531 C 175.328125 195.519531 174.972656 195.339844 174.578125 195.230469 C 174.21875 195.171875 173.863281 195.171875 173.503906 195.230469 L 165.988281 195.230469 C 153.691406 195.230469 146.578125 196.304688 146.578125 196.304688 C 139.097656 197.484375 131.910156 199.640625 125.011719 202.769531 C 118.714844 205.632812 118.214844 206.859375 114.230469 207.625 C 104.996094 209.414062 97.222656 204.859375 96.441406 204.402344 C 87.070312 198.742188 84.574219 188.429688 82.964844 181.761719 C 81.246094 174.671875 81.636719 168.878906 81.890625 165.585938 C 82.25 160.574219 82.605469 156.054688 85.109375 151.566406 C 88.011719 146.40625 92.472656 143.640625 98.050781 140.785156 C 110.183594 134.578125 121.753906 130.933594 137.945312 126.769531 C 149.039062 123.90625 154.613281 122.472656 161.128906 121.378906 C 172.011719 119.503906 182.972656 118.605469 194.015625 118.683594 C 209.082031 118.832031 216.71875 118.910156 226.363281 122.996094 C 233.046875 125.816406 238.976562 129.769531 244.152344 134.855469 C 249.808594 140.519531 252.871094 146.152344 254.9375 149.953125 C 256.90625 153.578125 258.585938 156.707031 259.789062 161.273438 C 261.613281 168.191406 261.148438 173.828125 260.863281 176.90625 C 260.503906 180.742188 259.726562 188.386719 254.929688 196.320312 C 252.652344 200.082031 250.394531 202.402344 246.304688 206.5625 C 243.441406 209.480469 240.886719 211.726562 233.90625 217.34375 C 224.027344 225.28125 221.910156 226.597656 216.113281 231.359375 C 211.578125 235.089844 208.773438 237.65625 202.097656 243.761719 C 181.503906 262.585938 169.425781 273.609375 158.4375 285.273438 C 146.753906 297.675781 152.664062 293.4375 147.660156 298.222656 Z M 147.660156 298.222656 " fill-opacity="1" fill-rule="nonzero"/></g><path stroke-linecap="butt" transform="matrix(0.357865, 0, 0, 0.357865, 33.78616, 0.0188952)" fill-opacity="1" fill="#5005f2" fill-rule="nonzero" stroke-linejoin="miter" d="M 1205.539933 614.834686 C 1202.003336 594.881297 1196.982243 575.288117 1190.465737 556.087891 C 1179.332007 523.50536 1166.473642 500.190021 1157.326519 483.784144 C 1148.801575 468.469808 1141.335427 455.131164 1128.69537 438.583386 C 1115.20391 420.922235 1103.830041 406.055432 1083.505528 391.8763 C 1057.504995 373.723956 1026.985479 363.834584 1017.216177 364.762395 C 1013.101064 365.15535 1009.946507 364.522256 1003.659225 363.245152 C 1000.657484 362.644803 998.245176 361.968047 997.655743 360.254326 C 996.978987 358.300466 999.926151 352.296984 999.162071 354.250845 C 999.162071 354.250845 1006.311672 335.825614 1012.719024 321.111627 C 1022.542903 298.560368 1023.427052 301.234646 1032.312204 280.440769 C 1040.684332 260.814843 1039.789267 258.653589 1045.858241 248.796964 C 1049.896947 242.553343 1053.411713 236.015006 1056.413453 229.214699 C 1058.421891 224.859446 1059.928219 220.340462 1060.932438 215.657747 C 1061.489124 212.76516 1062.438766 206.66344 1062.438766 206.66344 L 1054.89621 191.589244 C 1052.167355 186.142449 1038.053716 160.000016 1012.719024 134.337861 C 988.24665 109.559856 972.724922 93.84165 946.429673 87.641691 C 913.224963 79.815334 885.12867 92.422645 875.632254 96.635998 C 847.088428 109.450702 831.359307 129.709723 819.8872 144.849412 C 802.149641 168.262989 795.098279 188.172717 785.241654 214.151418 C 756.894306 288.812897 762.679479 262.419409 738.545484 328.643268 C 721.84489 374.400712 695.757034 446.638967 672.245217 545.576341 C 656.657996 611.003373 648.995371 659.598827 642.096825 703.729873 C 633.844767 756.254878 628.47438 801.488382 627.033544 854.384512 C 625.35257 916.296779 630.406409 938.50966 636.027851 955.308493 C 641.354576 971.103106 656.166803 1008.794055 691.772905 1041.191024 C 706.770693 1054.8353 723.449457 1070.007735 749.024288 1075.836569 C 766.641777 1079.842529 792.434916 1080.333723 803.263014 1078.83831 C 809.25558 1078.019653 815.379131 1078.390778 821.328035 1077.331982 C 824.329776 1076.611564 827.331517 1076.611564 830.333257 1077.331982 C 833.073028 1078.183385 835.539913 1079.536897 837.744828 1081.392519 C 840.670161 1083.695672 843.224369 1086.359035 845.396538 1089.393522 C 849.402497 1094.709332 854.816546 1097.056147 864.978803 1101.455062 C 912.788346 1121.997884 952.44407 1118.00284 952.44407 1118.00284 C 978.084394 1115.40497 995.199773 1107.000096 1018.733421 1095.397003 C 1034.735428 1087.51607 1068.846118 1070.346113 1101.59238 1035.14388 C 1124.121809 1010.900731 1135.724901 989.135382 1149.794879 962.829218 C 1165.371184 933.433989 1177.923918 902.805318 1187.463996 870.93229 C 1205.125147 812.338311 1208.028649 765.543902 1210.048002 729.31562 C 1211.925454 696.001755 1213.682837 660.504807 1205.539933 614.834686 Z M 1017.216177 657.000957 C 1007.807084 721.28187 991.968809 769.00409 988.595944 779.002615 C 973.292524 824.432597 965.597152 847.136672 946.407842 873.912199 C 927.054801 900.906035 884.877615 947.634952 859.040814 937.188894 C 848.169055 932.800895 844.15218 919.898867 839.447634 904.038761 C 832.254371 879.762865 830.366004 852.190512 842.449374 791.042325 C 845.996886 773.108288 849.34792 756.167555 854.085213 738.157111 C 858.364058 721.860387 863.527052 705.847465 869.574195 690.107428 C 881.570243 658.671016 879.278004 674.105421 917.776693 595.197844 C 924.325946 581.771876 931.584701 566.577611 947.91417 553.020658 C 959.080646 543.840789 971.644295 537.313367 985.572372 533.427478 C 991.925147 535.654223 997.459266 539.179904 1002.163812 544.00452 C 1011.158119 553.315374 1013.210218 564.645581 1014.214436 571.10751 C 1022.21544 622.999421 1017.216177 657.000957 1017.216177 657.000957 Z M 1017.216177 657.000957 " stroke="#d42300" stroke-width="1" stroke-opacity="1" stroke-miterlimit="10"/><path fill="#5005f2" d="M 802.699219 244.3125 C 801.765625 244.394531 801.566406 242.324219 798.925781 238.917969 C 796.285156 235.511719 794.425781 234.984375 794.613281 233.53125 C 794.824219 231.914062 797.148438 232 800.542969 229.214844 C 803.832031 226.515625 804.527344 224.078125 805.398438 224.359375 C 806.566406 224.746094 805.980469 229.417969 805.398438 234.066406 C 804.738281 239.292969 804.125 244.183594 802.699219 244.3125 Z M 802.699219 244.3125 " fill-opacity="1" fill-rule="nonzero"/><g clip-path="url(#a7c6732611)"><path fill="#5005f2" d="M 990.316406 98.207031 C 990.136719 97.722656 989.578125 96.207031 988.167969 95.511719 C 986.445312 94.664062 984.480469 95.511719 983.316406 96.046875 C 977.886719 98.578125 975.171875 99.84375 971.996094 103.058594 C 966.683594 108.425781 956.605469 110.957031 936.410156 115.996094 C 922.332031 119.515625 922.945312 117.6875 915.386719 119.769531 C 913.238281 120.359375 910.550781 120.34375 905.140625 120.3125 C 904.3125 120.3125 902.761719 120.277344 901.921875 119.238281 C 901.765625 119.050781 901.207031 118.300781 901.382812 116.015625 C 901.496094 114.519531 901.855469 113.082031 902.457031 111.703125 C 904.089844 108.265625 904.765625 104.4375 906.234375 100.921875 C 908.984375 94.328125 908.433594 92.332031 912.164062 80.433594 C 915.054688 71.207031 917.988281 64.089844 919.710938 59.949219 C 921.945312 54.582031 923.679688 50.394531 926.179688 45.394531 C 927.871094 42.015625 928.65625 38.089844 931.03125 35.152344 C 931.460938 34.617188 932.625 33.25 932.648438 31.375 C 932.664062 30.054688 932.109375 29.042969 931.574219 28.152344 C 928.960938 23.800781 926.722656 21.683594 926.722656 21.683594 C 923.820312 18.941406 921.671875 17.464844 918.636719 15.21875 C 910.996094 9.558594 911.300781 9.074219 907.3125 6.589844 C 904.777344 5.011719 901.683594 3.085938 897.609375 1.738281 C 888.410156 -1.300781 880.207031 0.582031 877.660156 1.199219 C 868.328125 3.460938 862.535156 8.640625 858.789062 11.980469 C 854.417969 15.84375 850.816406 20.324219 847.988281 25.425781 C 845.703125 29.679688 844.085938 34.171875 843.132812 38.90625 C 837.703125 64.378906 822.355469 126.871094 821.03125 132.175781 C 818.355469 142.882812 816.378906 146.449219 816.714844 151.046875 C 816.78125 151.867188 817.042969 154.300781 815.644531 156.433594 C 815.101562 157.261719 814.234375 158.160156 811.332031 159.65625 C 809.257812 160.75 807.097656 161.648438 804.859375 162.351562 C 795.71875 164.960938 796.628906 165.8125 790.300781 167.203125 C 781.082031 169.230469 781.917969 166.824219 774.671875 168.820312 C 772.953125 169.296875 769.5 170.371094 766.582031 168.820312 C 766.113281 168.574219 764.949219 167.933594 764.4375 166.671875 C 763.71875 164.902344 764.683594 162.972656 764.976562 162.355469 C 767.101562 157.90625 766.59375 152.621094 767.671875 147.804688 C 769.910156 137.78125 771.035156 132.773438 771.445312 131.089844 C 776.351562 110.855469 775.210938 111.40625 778.453125 99.28125 C 781.851562 86.550781 788.273438 66.570312 790.855469 60.460938 C 792.027344 57.6875 792.339844 54.597656 793.546875 51.835938 C 794.070312 50.820312 794.25 49.746094 794.089844 48.617188 C 793.757812 46.859375 792.410156 45.777344 791.941406 45.394531 C 787.710938 41.914062 790.027344 41.75 781.160156 34.613281 C 774.75 29.453125 771.03125 26.464844 764.988281 23.832031 C 761.574219 22.347656 758.492188 21.003906 754.203125 20.609375 C 746.691406 19.894531 740.855469 22.554688 736.953125 24.386719 C 725.667969 29.683594 719.332031 38.085938 715.925781 42.714844 C 709.976562 50.800781 707.3125 57.933594 704.605469 65.359375 C 702.140625 72.113281 701.453125 75.664062 694.898438 107.410156 C 692.128906 120.835938 691.996094 121.441406 691.128906 125.742188 C 689.449219 134.027344 687.546875 143.511719 685.195312 155.933594 C 681.355469 176.359375 679.4375 186.574219 679.265625 189.359375 C 678.90625 195.167969 676.402344 200.792969 676.570312 206.609375 C 676.59375 207.410156 676.738281 210.234375 674.953125 212 C 674.464844 212.4375 673.925781 212.792969 673.335938 213.074219 C 671.289062 214.191406 669.910156 214.542969 667.945312 215.222656 C 664.324219 216.484375 663.800781 217.105469 661.476562 217.367188 C 659.808594 217.566406 658.910156 217.367188 658.253906 216.828125 C 657.625 216.25 657.265625 215.53125 657.179688 214.679688 L 656.644531 211.984375 C 656.367188 210.621094 654.914062 205.992188 650.714844 200.664062 C 647.777344 196.941406 645.167969 193.632812 640.46875 191.5 C 635.058594 189.039062 630.035156 189.582031 627.53125 189.878906 C 617.195312 191.117188 610.222656 197.644531 605.964844 201.742188 C 594.453125 212.808594 590.21875 225.511719 587.632812 233.550781 C 585.445312 240.351562 581.328125 253.683594 583.859375 269.671875 C 585.066406 277.296875 588.304688 288.789062 592.484375 291.777344 C 595.179688 293.699219 595.898438 294.855469 597.339844 297.164062 C 597.871094 297.996094 598.230469 298.894531 598.410156 299.863281 C 598.554688 300.761719 598.554688 301.660156 598.410156 302.558594 C 596.570312 313.292969 589.246094 325.742188 589.246094 325.742188 C 580.109375 341.28125 580.242188 343.925781 574.152344 350 C 567.390625 356.746094 563.949219 356.765625 562.292969 356.46875 C 558.082031 355.726562 555.492188 351.207031 554.203125 348.921875 C 552.011719 345.078125 551.425781 341.476562 550.984375 336.523438 C 549.871094 324.476562 550.445312 316.574219 550.445312 316.574219 C 550.773438 312.078125 551.46875 304.792969 554.21875 290.15625 C 557.492188 272.742188 560.878906 259.851562 562.304688 254.574219 C 563.734375 249.300781 565.644531 242.273438 568.777344 233.011719 C 570.417969 228.144531 572.675781 221.511719 576.324219 213.0625 C 579.207031 206.378906 581.300781 202.496094 585.488281 194.734375 C 587.9375 190.1875 591.058594 184.65625 596.8125 180.714844 C 598.980469 179.226562 601.007812 178.320312 603.277344 178.570312 C 605.699219 178.824219 608.191406 180.359375 609.75 182.34375 C 611.210938 184.207031 611.09375 185.511719 612.445312 186.117188 C 613.964844 186.800781 615.832031 185.921875 617.296875 185.042969 C 624.875 180.46875 629.160156 172.640625 629.160156 172.640625 C 632.738281 166.101562 637.390625 157.613281 635.625 146.226562 C 635.152344 143.148438 634.277344 140.191406 632.996094 137.351562 C 631.714844 134.515625 630.074219 131.902344 628.078125 129.511719 C 618.25 117.882812 603.800781 117.253906 600.582031 117.113281 C 589.4375 116.625 580.515625 120.882812 574.167969 124.660156 C 561.9375 131.929688 540.296875 148.6875 514.859375 193.128906 C 506.796875 207.230469 499.738281 221.8125 493.679688 236.882812 C 487.621094 251.953125 482.621094 267.367188 478.683594 283.125 C 472.714844 307.222656 471.886719 321.851562 472.214844 333.265625 C 472.570312 345.875 473.167969 361.582031 481.378906 379.632812 C 484.957031 387.503906 492.542969 403.648438 509.953125 415.753906 C 515.984375 419.949219 525.140625 426.15625 538.527344 427.613281 C 555.730469 429.488281 569.363281 422.375 574.648438 419.527344 C 579.839844 416.734375 583.300781 414 586.507812 411.441406 C 593.238281 406.074219 601.59375 398.140625 612.925781 381.789062 C 632.808594 353.101562 643.636719 324.804688 645.8125 314.394531 C 646.839844 309.488281 648.371094 304.703125 649.585938 299.84375 C 650.324219 296.667969 651.394531 293.613281 652.808594 290.675781 C 653.757812 288.726562 654.53125 287.152344 656.027344 285.285156 C 659.25 281.289062 661.628906 281.234375 664.117188 278.8125 C 664.292969 278.640625 664.800781 278.136719 665.1875 278.277344 C 665.660156 278.441406 665.714844 279.445312 665.730469 279.894531 C 665.882812 284.398438 665.1875 286.902344 665.1875 286.902344 C 664.417969 289.691406 664.546875 292.664062 664.117188 295.527344 C 658.417969 333.214844 660.894531 382.867188 660.894531 382.867188 C 662.640625 415.988281 663.835938 434.757812 674.914062 454.570312 C 686.871094 475.957031 699.347656 478.863281 701.871094 479.371094 C 708.382812 480.679688 715.996094 479.523438 716.964844 479.371094 C 720.570312 478.800781 726.710938 477.410156 734.753906 472.902344 C 757.277344 460.273438 774.121094 436.242188 774.121094 436.242188 C 783.960938 422.191406 788.410156 410.585938 796.761719 388.796875 C 802.921875 372.734375 805.890625 359.5 805.925781 358.066406 C 805.980469 357.144531 806.164062 356.246094 806.46875 355.371094 C 806.675781 354.65625 806.824219 354.296875 807.007812 354.296875 C 807.285156 354.296875 807.492188 355.160156 807.542969 355.371094 C 808 357.160156 812.164062 371.308594 817.25 379.089844 C 818.902344 381.625 822.105469 386.394531 828.03125 388.796875 C 831.871094 390.351562 835.546875 390.390625 838.273438 390.414062 C 842.125 390.414062 845.898438 389.875 849.597656 388.796875 C 849.597656 388.796875 852.074219 388.121094 854.449219 387.179688 C 886.078125 374.652344 915.371094 313.320312 915.371094 313.320312 C 918.082031 307.640625 931.539062 279.007812 939.09375 241.078125 C 939.09375 241.078125 945.371094 209.550781 937.476562 188.777344 C 934.8125 181.773438 933.476562 178.265625 931.003906 176.378906 C 929.835938 175.488281 927.257812 173.875 927.234375 171.53125 C 927.234375 170.847656 927.433594 170.054688 928.304688 168.832031 C 930.753906 165.425781 934.535156 164.066406 934.777344 163.980469 C 938.636719 162.585938 941.402344 158.871094 956.882812 145.113281 C 973.535156 130.304688 981.292969 124.863281 985.453125 117.078125 C 987.148438 113.914062 986.144531 114.289062 989.769531 104.675781 C 990.296875 103.300781 991.269531 100.773438 990.316406 98.207031 Z M 751.484375 362.378906 C 747.519531 367.699219 740.246094 377.472656 735.308594 375.859375 C 732.589844 374.96875 729.152344 370.132812 733.164062 318.171875 C 735.886719 282.804688 737.335938 265.105469 741.789062 264.257812 C 749.554688 262.785156 765.464844 291.054688 765.507812 319.25 C 765.507812 323.714844 765.144531 344.027344 751.484375 362.378906 Z M 897.871094 247.789062 C 897.582031 251.621094 895.941406 269.003906 883.027344 283.839844 C 879.277344 288.132812 872.402344 296.039062 868.277344 294.328125 C 866.003906 293.386719 863.375 289.035156 870.21875 244.746094 C 874.871094 214.609375 877.277344 199.53125 881.148438 199.101562 C 887.902344 198.347656 899.679688 223.625 897.871094 247.789062 Z M 897.871094 247.789062 " fill-opacity="1" fill-rule="nonzero"/></g><g fill="#f205e2" fill-opacity="1"><g transform="translate(28.248302, 504.927898)"><g><path d="M 44.34375 1.40625 C 32.007812 1.40625 22.191406 -1.628906 14.890625 -7.703125 C 7.597656 -13.773438 3.953125 -23.398438 3.953125 -36.578125 C 3.953125 -36.765625 3.953125 -36.953125 3.953125 -37.140625 C 3.953125 -37.328125 3.953125 -37.46875 3.953125 -37.5625 C 4.140625 -45.664062 5.90625 -52.492188 9.25 -58.046875 C 12.59375 -63.597656 17.253906 -67.785156 23.234375 -70.609375 C 29.210938 -73.441406 36.203125 -74.859375 44.203125 -74.859375 C 53.429688 -74.859375 61.007812 -73.09375 66.9375 -69.5625 C 72.875 -66.03125 77.273438 -61.367188 80.140625 -55.578125 C 83.015625 -49.785156 84.453125 -43.40625 84.453125 -36.4375 L 84.453125 -32.203125 C 84.453125 -31.160156 84.078125 -30.265625 83.328125 -29.515625 C 82.578125 -28.765625 81.679688 -28.390625 80.640625 -28.390625 L 38.5625 -28.390625 C 38.5625 -28.296875 38.5625 -28.203125 38.5625 -28.109375 C 38.5625 -28.015625 38.5625 -27.875 38.5625 -27.6875 C 38.5625 -25.800781 38.722656 -24.222656 39.046875 -22.953125 C 39.378906 -21.679688 39.96875 -20.710938 40.8125 -20.046875 C 41.664062 -19.390625 42.75 -19.0625 44.0625 -19.0625 C 44.625 -19.0625 45.117188 -19.15625 45.546875 -19.34375 C 45.972656 -19.53125 46.394531 -19.835938 46.8125 -20.265625 C 47.238281 -20.691406 47.6875 -21.140625 48.15625 -21.609375 C 49.007812 -22.453125 49.71875 -22.992188 50.28125 -23.234375 C 50.84375 -23.472656 51.691406 -23.59375 52.828125 -23.59375 L 79.515625 -23.59375 C 80.453125 -23.59375 81.226562 -23.304688 81.84375 -22.734375 C 82.457031 -22.171875 82.71875 -21.421875 82.625 -20.484375 C 82.53125 -18.691406 81.703125 -16.546875 80.140625 -14.046875 C 78.585938 -11.554688 76.257812 -9.132812 73.15625 -6.78125 C 70.050781 -4.425781 66.097656 -2.472656 61.296875 -0.921875 C 56.492188 0.628906 50.84375 1.40625 44.34375 1.40625 Z M 38.5625 -46.046875 L 49.859375 -46.046875 L 49.859375 -46.1875 C 49.859375 -48.257812 49.644531 -49.953125 49.21875 -51.265625 C 48.789062 -52.585938 48.15625 -53.550781 47.3125 -54.15625 C 46.46875 -54.769531 45.429688 -55.078125 44.203125 -55.078125 C 42.984375 -55.078125 41.945312 -54.769531 41.09375 -54.15625 C 40.25 -53.550781 39.613281 -52.585938 39.1875 -51.265625 C 38.769531 -49.953125 38.5625 -48.257812 38.5625 -46.1875 Z M 38.5625 -46.046875 "/></g></g></g><g fill="#f205e2" fill-opacity="1"><g transform="translate(116.236734, 504.927898)"><g><path d="M 33.1875 0 C 31.78125 0 30.769531 -0.375 30.15625 -1.125 C 29.539062 -1.882812 29 -2.6875 28.53125 -3.53125 L 1.40625 -69.0625 C 1.3125 -69.34375 1.265625 -69.671875 1.265625 -70.046875 C 1.265625 -70.992188 1.59375 -71.796875 2.25 -72.453125 C 2.914062 -73.109375 3.71875 -73.4375 4.65625 -73.4375 L 28.53125 -73.4375 C 29.9375 -73.4375 30.992188 -73.0625 31.703125 -72.3125 C 32.410156 -71.5625 32.90625 -70.804688 33.1875 -70.046875 L 44.484375 -37.140625 L 55.78125 -70.046875 C 56.070312 -70.804688 56.566406 -71.5625 57.265625 -72.3125 C 57.972656 -73.0625 59.035156 -73.4375 60.453125 -73.4375 L 84.3125 -73.4375 C 85.257812 -73.4375 86.0625 -73.109375 86.71875 -72.453125 C 87.375 -71.796875 87.703125 -70.992188 87.703125 -70.046875 C 87.703125 -69.671875 87.65625 -69.34375 87.5625 -69.0625 L 60.453125 -3.53125 C 60.078125 -2.6875 59.554688 -1.882812 58.890625 -1.125 C 58.234375 -0.375 57.195312 0 55.78125 0 Z M 33.1875 0 "/></g></g></g><g fill="#f205e2" fill-opacity="1"><g transform="translate(205.213802, 504.927898)"><g><path d="M 44.34375 1.40625 C 32.007812 1.40625 22.191406 -1.628906 14.890625 -7.703125 C 7.597656 -13.773438 3.953125 -23.398438 3.953125 -36.578125 C 3.953125 -36.765625 3.953125 -36.953125 3.953125 -37.140625 C 3.953125 -37.328125 3.953125 -37.46875 3.953125 -37.5625 C 4.140625 -45.664062 5.90625 -52.492188 9.25 -58.046875 C 12.59375 -63.597656 17.253906 -67.785156 23.234375 -70.609375 C 29.210938 -73.441406 36.203125 -74.859375 44.203125 -74.859375 C 53.429688 -74.859375 61.007812 -73.09375 66.9375 -69.5625 C 72.875 -66.03125 77.273438 -61.367188 80.140625 -55.578125 C 83.015625 -49.785156 84.453125 -43.40625 84.453125 -36.4375 L 84.453125 -32.203125 C 84.453125 -31.160156 84.078125 -30.265625 83.328125 -29.515625 C 82.578125 -28.765625 81.679688 -28.390625 80.640625 -28.390625 L 38.5625 -28.390625 C 38.5625 -28.296875 38.5625 -28.203125 38.5625 -28.109375 C 38.5625 -28.015625 38.5625 -27.875 38.5625 -27.6875 C 38.5625 -25.800781 38.722656 -24.222656 39.046875 -22.953125 C 39.378906 -21.679688 39.96875 -20.710938 40.8125 -20.046875 C 41.664062 -19.390625 42.75 -19.0625 44.0625 -19.0625 C 44.625 -19.0625 45.117188 -19.15625 45.546875 -19.34375 C 45.972656 -19.53125 46.394531 -19.835938 46.8125 -20.265625 C 47.238281 -20.691406 47.6875 -21.140625 48.15625 -21.609375 C 49.007812 -22.453125 49.71875 -22.992188 50.28125 -23.234375 C 50.84375 -23.472656 51.691406 -23.59375 52.828125 -23.59375 L 79.515625 -23.59375 C 80.453125 -23.59375 81.226562 -23.304688 81.84375 -22.734375 C 82.457031 -22.171875 82.71875 -21.421875 82.625 -20.484375 C 82.53125 -18.691406 81.703125 -16.546875 80.140625 -14.046875 C 78.585938 -11.554688 76.257812 -9.132812 73.15625 -6.78125 C 70.050781 -4.425781 66.097656 -2.472656 61.296875 -0.921875 C 56.492188 0.628906 50.84375 1.40625 44.34375 1.40625 Z M 38.5625 -46.046875 L 49.859375 -46.046875 L 49.859375 -46.1875 C 49.859375 -48.257812 49.644531 -49.953125 49.21875 -51.265625 C 48.789062 -52.585938 48.15625 -53.550781 47.3125 -54.15625 C 46.46875 -54.769531 45.429688 -55.078125 44.203125 -55.078125 C 42.984375 -55.078125 41.945312 -54.769531 41.09375 -54.15625 C 40.25 -53.550781 39.613281 -52.585938 39.1875 -51.265625 C 38.769531 -49.953125 38.5625 -48.257812 38.5625 -46.1875 Z M 38.5625 -46.046875 "/></g></g></g><g fill="#f205e2" fill-opacity="1"><g transform="translate(293.202233, 504.927898)"><g><path d="M 10.171875 0 C 9.128906 0 8.234375 -0.375 7.484375 -1.125 C 6.734375 -1.882812 6.359375 -2.78125 6.359375 -3.8125 L 6.359375 -69.625 C 6.359375 -70.664062 6.734375 -71.5625 7.484375 -72.3125 C 8.234375 -73.0625 9.128906 -73.4375 10.171875 -73.4375 L 34.890625 -73.4375 C 35.921875 -73.4375 36.8125 -73.0625 37.5625 -72.3125 C 38.320312 -71.5625 38.703125 -70.664062 38.703125 -69.625 L 38.703125 -64.96875 C 41.054688 -67.695312 44.300781 -70.023438 48.4375 -71.953125 C 52.582031 -73.890625 57.148438 -74.859375 62.140625 -74.859375 C 66.941406 -74.859375 71.414062 -73.726562 75.5625 -71.46875 C 79.707031 -69.207031 83.070312 -65.722656 85.65625 -61.015625 C 88.25 -56.304688 89.546875 -50.234375 89.546875 -42.796875 L 89.546875 -3.8125 C 89.546875 -2.78125 89.164062 -1.882812 88.40625 -1.125 C 87.65625 -0.375 86.765625 0 85.734375 0 L 58.75 0 C 57.71875 0 56.820312 -0.375 56.0625 -1.125 C 55.3125 -1.882812 54.9375 -2.78125 54.9375 -3.8125 L 54.9375 -41.8125 C 54.9375 -44.351562 54.320312 -46.28125 53.09375 -47.59375 C 51.875 -48.914062 50.132812 -49.578125 47.875 -49.578125 C 45.613281 -49.578125 43.867188 -48.914062 42.640625 -47.59375 C 41.421875 -46.28125 40.8125 -44.351562 40.8125 -41.8125 L 40.8125 -3.8125 C 40.8125 -2.78125 40.4375 -1.882812 39.6875 -1.125 C 38.9375 -0.375 38.039062 0 37 0 Z M 10.171875 0 "/></g></g></g><g fill="#f205e2" fill-opacity="1"><g transform="translate(388.39356, 504.927898)"><g><path d="M 51.828125 0 C 45.054688 0 39.007812 -0.914062 33.6875 -2.75 C 28.363281 -4.59375 24.171875 -7.722656 21.109375 -12.140625 C 18.054688 -16.566406 16.53125 -22.640625 16.53125 -30.359375 L 16.53125 -48.71875 L 5.359375 -48.71875 C 4.328125 -48.71875 3.429688 -49.09375 2.671875 -49.84375 C 1.921875 -50.601562 1.546875 -51.503906 1.546875 -52.546875 L 1.546875 -69.625 C 1.546875 -70.664062 1.921875 -71.5625 2.671875 -72.3125 C 3.429688 -73.0625 4.328125 -73.4375 5.359375 -73.4375 L 16.53125 -73.4375 L 16.53125 -96.46875 C 16.53125 -97.5 16.90625 -98.390625 17.65625 -99.140625 C 18.40625 -99.898438 19.300781 -100.28125 20.34375 -100.28125 L 45.046875 -100.28125 C 46.085938 -100.28125 46.984375 -99.898438 47.734375 -99.140625 C 48.484375 -98.390625 48.859375 -97.5 48.859375 -96.46875 L 48.859375 -73.4375 L 66.65625 -73.4375 C 67.695312 -73.4375 68.59375 -73.0625 69.34375 -72.3125 C 70.09375 -71.5625 70.46875 -70.664062 70.46875 -69.625 L 70.46875 -52.546875 C 70.46875 -51.503906 70.09375 -50.601562 69.34375 -49.84375 C 68.59375 -49.09375 67.695312 -48.71875 66.65625 -48.71875 L 48.859375 -48.71875 L 48.859375 -33.1875 C 48.859375 -31.019531 49.351562 -29.300781 50.34375 -28.03125 C 51.332031 -26.757812 52.863281 -26.125 54.9375 -26.125 L 67.796875 -26.125 C 68.828125 -26.125 69.71875 -25.75 70.46875 -25 C 71.226562 -24.25 71.609375 -23.351562 71.609375 -22.3125 L 71.609375 -3.8125 C 71.609375 -2.78125 71.226562 -1.882812 70.46875 -1.125 C 69.71875 -0.375 68.828125 0 67.796875 0 Z M 51.828125 0 "/></g></g></g><g fill="#f205e2" fill-opacity="1"><g transform="translate(463.529754, 504.927898)"><g><path d="M 45.34375 1.40625 C 36.675781 1.40625 29.375 0.226562 23.4375 -2.125 C 17.507812 -4.476562 12.96875 -8.003906 9.8125 -12.703125 C 6.65625 -17.410156 4.84375 -23.203125 4.375 -30.078125 C 4.28125 -32.242188 4.234375 -34.476562 4.234375 -36.78125 C 4.234375 -39.09375 4.28125 -41.285156 4.375 -43.359375 C 4.84375 -50.328125 6.769531 -56.140625 10.15625 -60.796875 C 13.550781 -65.460938 18.210938 -68.972656 24.140625 -71.328125 C 30.078125 -73.679688 37.144531 -74.859375 45.34375 -74.859375 C 53.53125 -74.859375 60.585938 -73.679688 66.515625 -71.328125 C 72.453125 -68.972656 77.113281 -65.460938 80.5 -60.796875 C 83.894531 -56.140625 85.828125 -50.328125 86.296875 -43.359375 C 86.484375 -41.285156 86.578125 -39.09375 86.578125 -36.78125 C 86.578125 -34.476562 86.484375 -32.242188 86.296875 -30.078125 C 85.828125 -23.203125 84.015625 -17.410156 80.859375 -12.703125 C 77.703125 -8.003906 73.15625 -4.476562 67.21875 -2.125 C 61.289062 0.226562 54 1.40625 45.34375 1.40625 Z M 45.34375 -21.1875 C 48.070312 -21.1875 49.765625 -21.960938 50.421875 -23.515625 C 51.078125 -25.066406 51.5 -27.492188 51.6875 -30.796875 C 51.78125 -32.203125 51.828125 -34.175781 51.828125 -36.71875 C 51.828125 -39.257812 51.78125 -41.238281 51.6875 -42.65625 C 51.5 -45.757812 51.078125 -48.132812 50.421875 -49.78125 C 49.765625 -51.425781 48.070312 -52.25 45.34375 -52.25 C 42.695312 -52.25 41.019531 -51.425781 40.3125 -49.78125 C 39.613281 -48.132812 39.171875 -45.757812 38.984375 -42.65625 C 38.890625 -41.238281 38.84375 -39.257812 38.84375 -36.71875 C 38.84375 -34.175781 38.890625 -32.203125 38.984375 -30.796875 C 39.171875 -27.492188 39.613281 -25.066406 40.3125 -23.515625 C 41.019531 -21.960938 42.695312 -21.1875 45.34375 -21.1875 Z M 45.34375 -21.1875 "/></g></g></g><g fill="#f205e2" fill-opacity="1"><g transform="translate(554.201616, 504.927898)"><g><path d="M 40.8125 1.40625 C 34.03125 1.40625 28.265625 0.722656 23.515625 -0.640625 C 18.765625 -2.003906 14.90625 -3.742188 11.9375 -5.859375 C 8.96875 -7.972656 6.773438 -10.179688 5.359375 -12.484375 C 3.953125 -14.796875 3.203125 -16.894531 3.109375 -18.78125 C 3.015625 -19.820312 3.316406 -20.71875 4.015625 -21.46875 C 4.722656 -22.21875 5.550781 -22.59375 6.5 -22.59375 L 31.078125 -22.59375 C 31.171875 -22.59375 31.265625 -22.59375 31.359375 -22.59375 C 31.453125 -22.59375 31.546875 -22.59375 31.640625 -22.59375 C 32.859375 -22.5 33.960938 -22.097656 34.953125 -21.390625 C 35.941406 -20.691406 36.976562 -20.007812 38.0625 -19.34375 C 39.144531 -18.6875 40.394531 -18.359375 41.8125 -18.359375 C 42.5625 -18.359375 43.285156 -18.546875 43.984375 -18.921875 C 44.691406 -19.296875 45.046875 -19.816406 45.046875 -20.484375 C 45.046875 -21.328125 44.785156 -22.078125 44.265625 -22.734375 C 43.753906 -23.398438 42.484375 -24.082031 40.453125 -24.78125 C 38.429688 -25.488281 35.066406 -26.265625 30.359375 -27.109375 C 26.035156 -27.960938 21.894531 -29.28125 17.9375 -31.0625 C 13.976562 -32.851562 10.75 -35.347656 8.25 -38.546875 C 5.757812 -41.753906 4.515625 -45.804688 4.515625 -50.703125 C 4.515625 -54.753906 5.878906 -58.613281 8.609375 -62.28125 C 11.347656 -65.957031 15.375 -68.972656 20.6875 -71.328125 C 26.007812 -73.679688 32.53125 -74.859375 40.25 -74.859375 C 46.09375 -74.859375 51.269531 -74.195312 55.78125 -72.875 C 60.300781 -71.5625 64.140625 -69.867188 67.296875 -67.796875 C 70.453125 -65.722656 72.875 -63.507812 74.5625 -61.15625 C 76.257812 -58.800781 77.15625 -56.632812 77.25 -54.65625 C 77.34375 -53.625 77.0625 -52.726562 76.40625 -51.96875 C 75.75 -51.21875 74.992188 -50.84375 74.140625 -50.84375 L 51.828125 -50.84375 C 51.640625 -50.84375 51.40625 -50.84375 51.125 -50.84375 C 50.84375 -50.84375 50.609375 -50.84375 50.421875 -50.84375 C 49.097656 -50.84375 47.921875 -51.195312 46.890625 -51.90625 C 45.859375 -52.613281 44.820312 -53.316406 43.78125 -54.015625 C 42.75 -54.722656 41.523438 -55.078125 40.109375 -55.078125 C 39.453125 -55.078125 38.816406 -54.863281 38.203125 -54.4375 C 37.585938 -54.019531 37.28125 -53.484375 37.28125 -52.828125 C 37.28125 -52.066406 37.5625 -51.332031 38.125 -50.625 C 38.695312 -49.925781 40.066406 -49.269531 42.234375 -48.65625 C 44.398438 -48.039062 47.929688 -47.359375 52.828125 -46.609375 C 59.597656 -45.660156 65.007812 -43.914062 69.0625 -41.375 C 73.113281 -38.832031 76.007812 -35.914062 77.75 -32.625 C 79.488281 -29.332031 80.359375 -26.082031 80.359375 -22.875 C 80.359375 -17.882812 78.828125 -13.550781 75.765625 -9.875 C 72.710938 -6.207031 68.242188 -3.410156 62.359375 -1.484375 C 56.472656 0.441406 49.289062 1.40625 40.8125 1.40625 Z M 40.8125 1.40625 "/></g></g></g></svg>