<svg xmlns="http://www.w3.org/2000/svg" xmlns:xlink="http://www.w3.org/1999/xlink" width="1302" zoomAndPan="magnify" viewBox="0 0 976.5 516.000002" height="688" preserveAspectRatio="xMidYMid meet" version="1.0"><defs><g/><clipPath id="4ffcfc63a8"><path d="M 14 0 L 975.304688 0 L 975.304688 501 L 14 501 Z M 14 0 " clip-rule="nonzero"/></clipPath><clipPath id="1deeb2c304"><path d="M 5.589844 118 L 233 118 L 233 403 L 5.589844 403 Z M 5.589844 118 " clip-rule="nonzero"/></clipPath><clipPath id="7de39ff79e"><path d="M 443 0 L 961.304688 0 L 961.304688 479.445312 L 443 479.445312 Z M 443 0 " clip-rule="nonzero"/></clipPath><clipPath id="62c1f0a0cf"><path d="M 0.109375 420 L 630 420 L 630 500.628906 L 0.109375 500.628906 Z M 0.109375 420 " clip-rule="nonzero"/></clipPath><clipPath id="fc870916f7"><rect x="0" width="630" y="0" height="81"/></clipPath><clipPath id="d195330cf4"><rect x="0" width="962" y="0" height="501"/></clipPath></defs><g clip-path="url(#4ffcfc63a8)"><g transform="matrix(1, 0, 0, 1, 14, 0.000000000000127119)"><g clip-path="url(#d195330cf4)"><g clip-path="url(#1deeb2c304)"><path fill="#5005f2" d="M 119.371094 297.78125 C 119.371094 297.78125 112.644531 304.214844 112.371094 308.550781 C 112.324219 309.660156 112.503906 310.730469 112.910156 311.765625 C 113.136719 312.28125 113.59375 313.328125 114.527344 313.910156 C 116.035156 314.867188 118.054688 314.171875 118.832031 313.910156 C 125.585938 311.675781 118.304688 316.410156 132.832031 310.691406 C 147.617188 304.847656 159.210938 298.851562 159.210938 298.851562 C 172.324219 292.058594 178.882812 288.671875 182.898438 285.390625 C 186.984375 282.050781 192.242188 280.117188 195.820312 276.242188 C 196.5 275.5 198.320312 273.429688 200.664062 273.546875 C 202.171875 273.625 203.335938 274.671875 203.878906 275.160156 C 205.484375 276.589844 206.105469 278.246094 206.570312 279.472656 C 209.589844 287.414062 208.554688 283.324219 209.789062 287.542969 C 212.476562 296.632812 213.820312 301.183594 214.632812 306.925781 C 215.347656 312.070312 216.394531 319.3125 215.171875 328.460938 C 214.59375 332.777344 212.925781 344.300781 204.941406 355.917969 C 199.144531 364.355469 192.625 369.054688 183.945312 375.300781 C 179.527344 378.570312 174.859375 381.441406 169.949219 383.910156 C 168.316406 384.726562 161.804688 387.917969 148.953125 391.449219 C 143.59375 392.921875 138.8125 393.992188 123.109375 396.832031 C 108.710938 399.4375 101.507812 400.738281 98.347656 401.121094 C 80.164062 403.417969 66.183594 403.007812 57.964844 402.738281 C 49.386719 402.453125 42.570312 401.824219 35.355469 400.59375 C 24.460938 398.71875 18.917969 397.695312 14.359375 393.597656 C 6.855469 386.855469 6.039062 376.800781 5.746094 373.136719 C 5.082031 364.917969 7.414062 358.679688 9.515625 353.21875 C 11.789062 347.3125 14.160156 343.785156 21.355469 333.300781 C 30.949219 319.332031 35.742188 312.351562 36.96875 310.6875 C 39.671875 307.03125 48.191406 295.59375 61.195312 280.539062 C 73.800781 265.949219 83.597656 256.074219 96.191406 243.375 C 97.511719 242.042969 115.789062 223.667969 127.953125 213.222656 C 129.980469 211.484375 138.425781 204.699219 141.410156 201.921875 C 142.613281 200.804688 143.851562 199.492188 145.179688 198.703125 C 145.949219 198.238281 146.535156 197.5 147.324219 197.089844 C 147.570312 196.976562 147.75 196.796875 147.863281 196.550781 C 147.925781 196.371094 147.925781 196.191406 147.863281 196.015625 C 147.816406 195.882812 147.726562 195.738281 147.324219 195.472656 C 147.003906 195.222656 146.644531 195.042969 146.253906 194.933594 C 145.894531 194.875 145.539062 194.875 145.179688 194.933594 L 137.675781 194.933594 C 125.398438 194.933594 118.292969 196.007812 118.292969 196.007812 C 110.824219 197.1875 103.644531 199.339844 96.757812 202.464844 C 90.46875 205.324219 89.96875 206.546875 85.992188 207.308594 C 76.773438 209.097656 69.007812 204.550781 68.226562 204.09375 C 58.867188 198.441406 56.378906 188.140625 54.769531 181.484375 C 53.054688 174.40625 53.445312 168.617188 53.699219 165.332031 C 54.054688 160.328125 54.414062 155.816406 56.914062 151.332031 C 59.808594 146.179688 64.265625 143.417969 69.835938 140.566406 C 81.949219 134.371094 93.503906 130.726562 109.675781 126.570312 C 120.753906 123.710938 126.316406 122.28125 132.824219 121.1875 C 143.691406 119.316406 154.636719 118.417969 165.664062 118.496094 C 180.710938 118.644531 188.335938 118.722656 197.964844 122.800781 C 204.640625 125.621094 210.5625 129.566406 215.730469 134.644531 C 221.375 140.300781 224.4375 145.925781 226.496094 149.722656 C 228.464844 153.339844 230.144531 156.464844 231.34375 161.023438 C 233.164062 167.933594 232.703125 173.5625 232.414062 176.636719 C 232.058594 180.464844 231.28125 188.097656 226.492188 196.019531 C 224.21875 199.78125 221.960938 202.097656 217.878906 206.25 C 215.019531 209.164062 212.46875 211.410156 205.496094 217.015625 C 195.632812 224.941406 193.515625 226.257812 187.726562 231.011719 C 183.199219 234.738281 180.402344 237.300781 173.734375 243.394531 C 153.171875 262.191406 141.105469 273.203125 130.136719 284.847656 C 118.46875 297.234375 124.371094 293 119.371094 297.78125 Z M 119.371094 297.78125 " fill-opacity="1" fill-rule="nonzero"/></g><path stroke-linecap="butt" transform="matrix(0.357357, 0, 0, 0.357357, 5.662011, 0.0000199613)" fill-opacity="1" fill="#5005f2" fill-rule="nonzero" stroke-linejoin="miter" d="M 1205.537412 614.844489 C 1201.995781 594.873628 1196.978471 575.296282 1190.474551 556.090588 C 1179.324973 523.505401 1166.470166 500.189667 1157.331885 483.782298 C 1148.794807 468.468026 1141.328962 455.132257 1128.703705 438.582786 C 1115.203972 420.918357 1103.824844 406.052254 1083.515124 391.874801 C 1057.510374 373.718479 1026.991138 363.825962 1017.218861 364.755093 C 1013.09789 365.148608 1009.949774 364.514612 1003.664473 363.246621 C 1000.658459 362.645418 998.242718 361.967699 997.663377 360.251538 C 996.974726 358.294897 999.926085 352.304732 999.160918 354.250442 C 999.160918 354.250442 1006.309765 335.831777 1012.715306 321.107776 C 1022.542238 298.557209 1023.427646 301.235294 1032.314515 280.444611 C 1040.676698 260.81261 1039.79129 258.64828 1045.857972 248.799487 C 1049.891496 242.546979 1053.411264 236.021197 1056.406347 229.21121 C 1058.417643 224.860688 1059.926115 220.346202 1060.931764 215.656821 C 1061.489243 212.771048 1062.440236 206.660643 1062.440236 206.660643 L 1054.897875 191.586851 C 1052.165135 186.143234 1038.053268 159.996381 1012.715306 134.341422 C 988.251822 109.56094 972.71893 93.842222 946.429975 87.644368 C 913.221724 79.806871 885.129161 92.421197 875.630158 96.640547 C 847.089426 109.45163 831.359777 129.706696 819.893201 144.846073 C 802.152256 168.260186 795.101788 188.165461 785.242063 214.148349 C 756.887157 288.806794 762.680565 262.419461 738.545009 328.639207 C 721.853436 374.396198 695.761238 446.638902 672.248747 545.575006 C 656.6612 610.996792 648.998599 659.595832 642.101164 703.735042 C 633.837359 756.258297 628.470259 801.490603 627.027372 854.374579 C 625.354936 916.298458 630.405038 938.510165 636.034482 955.311048 C 641.346928 971.095352 656.169307 1008.785297 691.771439 1041.184657 C 706.768713 1054.837424 723.449356 1070.009594 749.016867 1075.835795 C 766.637572 1079.836526 792.434634 1080.328419 803.256283 1078.841809 C 809.257379 1078.021987 815.378715 1078.393639 821.325157 1077.333336 C 824.33117 1076.611893 827.326253 1076.611893 830.332266 1077.333336 C 833.075937 1078.185951 835.546334 1079.54139 837.743456 1081.388722 C 840.672953 1083.695154 843.230797 1086.362308 845.395127 1089.390183 C 849.395858 1094.71356 854.817613 1097.063716 864.983404 1101.447031 C 912.795416 1121.997232 952.442002 1117.996501 952.442002 1117.996501 C 978.075099 1115.394933 995.203911 1106.999957 1018.727333 1095.402211 C 1034.730256 1087.52099 1068.845777 1070.348454 1101.594929 1035.139837 C 1124.123634 1010.894972 1135.721381 989.142365 1149.789524 962.831548 C 1165.36614 933.438201 1177.925811 902.798725 1187.457606 870.934981 C 1205.122035 812.345044 1208.02967 765.538681 1210.051897 729.324416 C 1211.921091 695.995924 1213.680976 660.514033 1205.537412 614.844489 Z M 1017.218861 657.005195 C 1007.807306 721.27923 991.968347 769.003794 988.601612 778.99469 C 973.28734 824.434684 965.602876 847.138285 946.408113 873.908202 C 927.049386 900.907669 884.877749 947.626585 859.036963 937.18752 C 848.17159 932.804205 844.148998 919.894743 839.448686 904.044854 C 832.245184 879.756264 830.365059 852.188387 842.454699 791.040606 C 845.99633 773.113835 849.352134 756.170849 854.085239 738.15663 C 858.370175 721.858571 863.529587 705.844717 869.574407 690.115068 C 881.565668 658.666701 879.281098 674.112145 917.779933 595.201557 C 924.327577 581.767409 931.585734 566.584308 947.905654 553.018989 C 959.088025 543.836984 971.636765 537.311201 985.573737 533.430711 C 991.924624 535.660627 997.455689 539.180395 1002.156001 544.000948 C 1011.16311 553.325055 1013.2072 564.649528 1014.212848 571.109725 C 1022.214309 622.998984 1017.218861 657.005195 1017.218861 657.005195 Z M 1017.218861 657.005195 " stroke="#d42300" stroke-width="1" stroke-opacity="1" stroke-miterlimit="10"/><path fill="#5005f2" d="M 773.480469 243.945312 C 772.550781 244.027344 772.351562 241.960938 769.714844 238.5625 C 767.078125 235.160156 765.21875 234.628906 765.410156 233.179688 C 765.621094 231.566406 767.9375 231.652344 771.332031 228.867188 C 774.613281 226.175781 775.308594 223.742188 776.175781 224.023438 C 777.34375 224.410156 776.757812 229.074219 776.175781 233.714844 C 775.519531 238.933594 774.902344 243.816406 773.480469 243.945312 Z M 773.480469 243.945312 " fill-opacity="1" fill-rule="nonzero"/><g clip-path="url(#7de39ff79e)"><path fill="#5005f2" d="M 960.832031 98.046875 C 960.65625 97.566406 960.09375 96.050781 958.6875 95.355469 C 956.964844 94.511719 955.003906 95.355469 953.84375 95.894531 C 948.417969 98.417969 945.710938 99.679688 942.535156 102.894531 C 937.234375 108.253906 927.171875 110.78125 907.003906 115.8125 C 892.945312 119.324219 893.558594 117.503906 886.011719 119.582031 C 883.867188 120.167969 881.179688 120.152344 875.777344 120.121094 C 874.949219 120.121094 873.402344 120.085938 872.5625 119.050781 C 872.410156 118.863281 871.847656 118.113281 872.027344 115.832031 C 872.136719 114.335938 872.496094 112.902344 873.097656 111.527344 C 874.726562 108.09375 875.402344 104.269531 876.867188 100.761719 C 879.617188 94.175781 879.066406 92.183594 882.789062 80.300781 C 885.679688 71.085938 888.609375 63.980469 890.328125 59.847656 C 892.558594 54.484375 894.289062 50.304688 896.789062 45.308594 C 898.476562 41.9375 899.261719 38.015625 901.628906 35.082031 C 902.058594 34.550781 903.222656 33.183594 903.246094 31.3125 C 903.261719 29.992188 902.710938 28.980469 902.171875 28.09375 C 899.566406 23.75 897.328125 21.632812 897.328125 21.632812 C 894.433594 18.898438 892.285156 17.421875 889.253906 15.175781 C 881.625 9.527344 881.929688 9.042969 877.949219 6.5625 C 875.414062 4.984375 872.328125 3.0625 868.257812 1.714844 C 859.074219 -1.320312 850.878906 0.5625 848.335938 1.179688 C 839.019531 3.4375 833.230469 8.609375 829.492188 11.945312 C 825.125 15.800781 821.53125 20.277344 818.707031 25.371094 C 816.425781 29.621094 814.8125 34.105469 813.859375 38.832031 C 808.433594 64.265625 793.113281 126.671875 791.789062 131.96875 C 789.117188 142.660156 787.144531 146.222656 787.480469 150.8125 C 787.542969 151.632812 787.804688 154.0625 786.40625 156.195312 C 785.867188 157.019531 785 157.914062 782.101562 159.410156 C 780.03125 160.503906 777.875 161.402344 775.640625 162.101562 C 766.511719 164.710938 767.421875 165.554688 761.101562 166.945312 C 751.894531 168.972656 752.730469 166.566406 745.492188 168.5625 C 743.777344 169.035156 740.328125 170.109375 737.417969 168.5625 C 736.949219 168.316406 735.785156 167.675781 735.273438 166.417969 C 734.558594 164.648438 735.519531 162.722656 735.8125 162.109375 C 737.9375 157.664062 737.429688 152.382812 738.503906 147.574219 C 740.742188 137.566406 741.863281 132.566406 742.273438 130.886719 C 747.171875 110.679688 746.035156 111.230469 749.269531 99.121094 C 752.664062 86.410156 759.078125 66.457031 761.652344 60.359375 C 762.824219 57.589844 763.136719 54.5 764.34375 51.746094 C 764.863281 50.730469 765.042969 49.660156 764.882812 48.527344 C 764.554688 46.773438 763.207031 45.691406 762.738281 45.3125 C 758.515625 41.835938 760.828125 41.671875 751.972656 34.546875 C 745.574219 29.394531 741.859375 26.410156 735.824219 23.777344 C 732.414062 22.296875 729.335938 20.957031 725.054688 20.5625 C 717.550781 19.847656 711.726562 22.503906 707.828125 24.332031 C 696.5625 29.621094 690.230469 38.011719 686.832031 42.636719 C 680.890625 50.707031 678.230469 57.832031 675.527344 65.246094 C 673.066406 71.992188 672.378906 75.539062 665.835938 107.238281 C 663.070312 120.644531 662.9375 121.25 662.070312 125.542969 C 660.394531 133.820312 658.496094 143.289062 656.144531 155.691406 C 652.308594 176.089844 650.394531 186.289062 650.222656 189.070312 C 649.863281 194.871094 647.363281 200.488281 647.53125 206.296875 C 647.554688 207.09375 647.699219 209.914062 645.917969 211.679688 C 645.429688 212.117188 644.890625 212.472656 644.300781 212.753906 C 642.261719 213.867188 640.882812 214.222656 638.917969 214.894531 C 635.304688 216.15625 634.78125 216.78125 632.457031 217.039062 C 630.792969 217.238281 629.894531 217.039062 629.242188 216.5 C 628.613281 215.921875 628.253906 215.207031 628.171875 214.355469 L 627.632812 211.664062 C 627.359375 210.304688 625.90625 205.679688 621.710938 200.359375 C 618.777344 196.644531 616.171875 193.335938 611.480469 191.207031 C 606.078125 188.753906 601.066406 189.292969 598.5625 189.59375 C 588.242188 190.828125 581.277344 197.347656 577.027344 201.433594 C 565.53125 212.488281 561.304688 225.171875 558.722656 233.199219 C 556.539062 239.988281 552.425781 253.304688 554.953125 269.269531 C 556.160156 276.882812 559.394531 288.359375 563.566406 291.34375 C 566.257812 293.265625 566.976562 294.417969 568.414062 296.722656 C 568.945312 297.550781 569.300781 298.449219 569.484375 299.417969 C 569.628906 300.316406 569.628906 301.210938 569.484375 302.109375 C 567.644531 312.828125 560.332031 325.257812 560.332031 325.257812 C 551.210938 340.777344 551.34375 343.417969 545.257812 349.484375 C 538.507812 356.21875 535.070312 356.238281 533.417969 355.945312 C 529.214844 355.203125 526.628906 350.6875 525.339844 348.410156 C 523.148438 344.566406 522.566406 340.972656 522.125 336.027344 C 521.011719 323.996094 521.585938 316.105469 521.585938 316.105469 C 521.914062 311.613281 522.605469 304.339844 525.355469 289.726562 C 528.625 272.335938 532.003906 259.460938 533.429688 254.195312 C 534.855469 248.925781 536.765625 241.910156 539.890625 232.660156 C 541.53125 227.800781 543.785156 221.179688 547.429688 212.742188 C 550.308594 206.066406 552.398438 202.1875 556.582031 194.4375 C 559.023438 189.898438 562.140625 184.375 567.886719 180.441406 C 570.054688 178.953125 572.078125 178.050781 574.34375 178.296875 C 576.761719 178.550781 579.25 180.082031 580.804688 182.066406 C 582.265625 183.929688 582.148438 185.230469 583.496094 185.832031 C 585.015625 186.515625 586.882812 185.640625 588.34375 184.761719 C 595.910156 180.195312 600.1875 172.378906 600.1875 172.378906 C 603.761719 165.84375 608.40625 157.367188 606.644531 145.996094 C 606.175781 142.925781 605.296875 139.972656 604.019531 137.136719 C 602.738281 134.304688 601.101562 131.695312 599.109375 129.308594 C 589.296875 117.695312 574.867188 117.066406 571.652344 116.925781 C 560.523438 116.441406 551.613281 120.695312 545.273438 124.464844 C 533.0625 131.726562 511.453125 148.457031 486.054688 192.835938 C 478 206.914062 470.949219 221.480469 464.902344 236.527344 C 458.851562 251.578125 453.859375 266.96875 449.925781 282.703125 C 443.96875 306.765625 443.136719 321.375 443.464844 332.773438 C 443.824219 345.363281 444.421875 361.046875 452.617188 379.074219 C 456.191406 386.933594 463.769531 403.054688 481.152344 415.144531 C 487.175781 419.332031 496.320312 425.53125 509.683594 426.988281 C 526.863281 428.859375 540.476562 421.753906 545.757812 418.910156 C 550.9375 416.125 554.394531 413.394531 557.597656 410.839844 C 564.316406 405.476562 572.660156 397.554688 583.980469 381.226562 C 603.835938 352.582031 614.644531 324.324219 616.820312 313.929688 C 617.847656 309.03125 619.371094 304.25 620.585938 299.398438 C 621.320312 296.226562 622.394531 293.175781 623.804688 290.246094 C 624.753906 288.296875 625.527344 286.726562 627.019531 284.859375 C 630.234375 280.871094 632.613281 280.8125 635.09375 278.398438 C 635.273438 278.226562 635.777344 277.722656 636.167969 277.863281 C 636.640625 278.027344 636.691406 279.027344 636.707031 279.476562 C 636.859375 283.972656 636.167969 286.476562 636.167969 286.476562 C 635.394531 289.261719 635.523438 292.226562 635.09375 295.085938 C 629.40625 332.71875 631.878906 382.304688 631.878906 382.304688 C 633.625 415.378906 634.816406 434.121094 645.878906 453.90625 C 657.820312 475.261719 670.277344 478.164062 672.796875 478.671875 C 679.300781 479.976562 686.902344 478.820312 687.871094 478.671875 C 691.46875 478.101562 697.601562 476.714844 705.632812 472.210938 C 728.125 459.601562 744.945312 435.601562 744.945312 435.601562 C 754.769531 421.574219 759.210938 409.984375 767.554688 388.226562 C 773.703125 372.1875 776.667969 358.972656 776.707031 357.539062 C 776.761719 356.617188 776.941406 355.71875 777.246094 354.847656 C 777.453125 354.132812 777.601562 353.777344 777.785156 353.777344 C 778.058594 353.777344 778.265625 354.636719 778.320312 354.847656 C 778.773438 356.636719 782.933594 370.761719 788.011719 378.535156 C 789.664062 381.0625 792.863281 385.828125 798.777344 388.226562 C 802.613281 389.78125 806.285156 389.816406 809.007812 389.839844 C 812.851562 389.839844 816.621094 389.300781 820.3125 388.226562 C 820.3125 388.226562 822.785156 387.550781 825.160156 386.609375 C 856.742188 374.101562 885.996094 312.855469 885.996094 312.855469 C 888.699219 307.183594 902.136719 278.589844 909.679688 240.714844 C 909.679688 240.714844 915.953125 209.234375 908.066406 188.492188 C 905.40625 181.496094 904.074219 177.992188 901.605469 176.109375 C 900.4375 175.21875 897.863281 173.609375 897.839844 171.265625 C 897.839844 170.585938 898.039062 169.792969 898.910156 168.574219 C 901.355469 165.171875 905.132812 163.816406 905.371094 163.726562 C 909.226562 162.335938 911.984375 158.628906 927.445312 144.886719 C 944.078125 130.097656 951.820312 124.667969 955.976562 116.890625 C 957.667969 113.730469 956.667969 114.109375 960.285156 104.507812 C 960.8125 103.136719 961.785156 100.609375 960.832031 98.046875 Z M 722.339844 361.84375 C 718.382812 367.160156 711.117188 376.917969 706.1875 375.304688 C 703.472656 374.417969 700.042969 369.589844 704.042969 317.699219 C 706.761719 282.382812 708.210938 264.707031 712.660156 263.863281 C 720.414062 262.394531 736.300781 290.621094 736.34375 318.777344 C 736.34375 323.234375 735.980469 343.519531 722.339844 361.84375 Z M 868.515625 247.417969 C 868.230469 251.242188 866.589844 268.605469 853.695312 283.414062 C 849.953125 287.703125 843.085938 295.597656 838.96875 293.890625 C 836.699219 292.949219 834.070312 288.605469 840.90625 244.378906 C 845.550781 214.285156 847.953125 199.230469 851.820312 198.800781 C 858.566406 198.046875 870.324219 223.289062 868.515625 247.417969 Z M 868.515625 247.417969 " fill-opacity="1" fill-rule="nonzero"/></g><g clip-path="url(#62c1f0a0cf)"><g transform="matrix(1, 0, 0, 1, 0, 420)"><g clip-path="url(#fc870916f7)"><g fill="#00334e" fill-opacity="1"><g transform="translate(0.134761, 63.206397)"><g><path d="M 23.515625 0.671875 C 19.398438 0.671875 15.894531 -0.0390625 13 -1.46875 C 10.113281 -2.90625 7.875 -4.976562 6.28125 -7.6875 C 4.6875 -10.40625 3.828125 -13.644531 3.703125 -17.40625 C 3.648438 -19.332031 3.625 -21.40625 3.625 -23.625 C 3.625 -25.84375 3.648438 -27.9375 3.703125 -29.90625 C 3.828125 -33.625 4.6875 -36.800781 6.28125 -39.4375 C 7.875 -42.082031 10.132812 -44.125 13.0625 -45.5625 C 16 -47 19.484375 -47.71875 23.515625 -47.71875 C 26.785156 -47.71875 29.648438 -47.28125 32.109375 -46.40625 C 34.578125 -45.53125 36.628906 -44.410156 38.265625 -43.046875 C 39.898438 -41.679688 41.132812 -40.210938 41.96875 -38.640625 C 42.800781 -37.078125 43.238281 -35.625 43.28125 -34.28125 C 43.320312 -33.875 43.207031 -33.535156 42.9375 -33.265625 C 42.675781 -32.992188 42.320312 -32.859375 41.875 -32.859375 L 34.953125 -32.859375 C 34.503906 -32.859375 34.164062 -32.945312 33.9375 -33.125 C 33.707031 -33.3125 33.503906 -33.582031 33.328125 -33.9375 C 32.972656 -34.875 32.414062 -35.800781 31.65625 -36.71875 C 30.894531 -37.644531 29.863281 -38.421875 28.5625 -39.046875 C 27.257812 -39.671875 25.578125 -39.984375 23.515625 -39.984375 C 20.472656 -39.984375 18.039062 -39.175781 16.21875 -37.5625 C 14.40625 -35.945312 13.4375 -33.28125 13.3125 -29.5625 C 13.175781 -25.664062 13.175781 -21.722656 13.3125 -17.734375 C 13.4375 -13.929688 14.425781 -11.203125 16.28125 -9.546875 C 18.144531 -7.890625 20.601562 -7.0625 23.65625 -7.0625 C 25.664062 -7.0625 27.46875 -7.414062 29.0625 -8.125 C 30.65625 -8.84375 31.910156 -9.960938 32.828125 -11.484375 C 33.742188 -13.015625 34.203125 -14.96875 34.203125 -17.34375 L 34.203125 -19.421875 L 26 -19.421875 C 25.550781 -19.421875 25.171875 -19.578125 24.859375 -19.890625 C 24.546875 -20.203125 24.390625 -20.609375 24.390625 -21.109375 L 24.390625 -24.65625 C 24.390625 -25.15625 24.546875 -25.5625 24.859375 -25.875 C 25.171875 -26.1875 25.550781 -26.34375 26 -26.34375 L 42.0625 -26.34375 C 42.5625 -26.34375 42.957031 -26.1875 43.25 -25.875 C 43.539062 -25.5625 43.6875 -25.15625 43.6875 -24.65625 L 43.6875 -17.609375 C 43.6875 -13.847656 42.867188 -10.597656 41.234375 -7.859375 C 39.597656 -5.128906 37.265625 -3.023438 34.234375 -1.546875 C 31.210938 -0.0664062 27.640625 0.671875 23.515625 0.671875 Z M 23.515625 0.671875 "/></g></g></g><g fill="#00334e" fill-opacity="1"><g transform="translate(47.170523, 63.206397)"><g><path d="M 19.484375 0.671875 C 14.515625 0.671875 10.570312 -0.757812 7.65625 -3.625 C 4.75 -6.5 3.179688 -10.578125 2.953125 -15.859375 C 2.910156 -16.304688 2.890625 -16.875 2.890625 -17.5625 C 2.890625 -18.257812 2.910156 -18.8125 2.953125 -19.21875 C 3.128906 -22.625 3.898438 -25.546875 5.265625 -27.984375 C 6.640625 -30.429688 8.535156 -32.316406 10.953125 -33.640625 C 13.367188 -34.960938 16.210938 -35.625 19.484375 -35.625 C 23.117188 -35.625 26.164062 -34.867188 28.625 -33.359375 C 31.09375 -31.859375 32.953125 -29.773438 34.203125 -27.109375 C 35.460938 -24.453125 36.09375 -21.375 36.09375 -17.875 L 36.09375 -16.46875 C 36.09375 -16.019531 35.929688 -15.640625 35.609375 -15.328125 C 35.296875 -15.015625 34.894531 -14.859375 34.40625 -14.859375 L 12.09375 -14.859375 C 12.09375 -14.859375 12.09375 -14.789062 12.09375 -14.65625 C 12.09375 -14.519531 12.09375 -14.40625 12.09375 -14.3125 C 12.132812 -12.75 12.4375 -11.304688 13 -9.984375 C 13.5625 -8.660156 14.390625 -7.59375 15.484375 -6.78125 C 16.585938 -5.976562 17.898438 -5.578125 19.421875 -5.578125 C 20.671875 -5.578125 21.722656 -5.765625 22.578125 -6.140625 C 23.429688 -6.523438 24.125 -6.960938 24.65625 -7.453125 C 25.195312 -7.953125 25.582031 -8.359375 25.8125 -8.671875 C 26.207031 -9.203125 26.53125 -9.523438 26.78125 -9.640625 C 27.03125 -9.753906 27.398438 -9.8125 27.890625 -9.8125 L 33.671875 -9.8125 C 34.117188 -9.8125 34.488281 -9.675781 34.78125 -9.40625 C 35.070312 -9.132812 35.191406 -8.800781 35.140625 -8.40625 C 35.097656 -7.6875 34.726562 -6.8125 34.03125 -5.78125 C 33.34375 -4.75 32.347656 -3.738281 31.046875 -2.75 C 29.742188 -1.769531 28.117188 -0.953125 26.171875 -0.296875 C 24.222656 0.347656 21.992188 0.671875 19.484375 0.671875 Z M 12.09375 -20.5 L 26.953125 -20.5 L 26.953125 -20.703125 C 26.953125 -22.441406 26.660156 -23.972656 26.078125 -25.296875 C 25.492188 -26.617188 24.640625 -27.648438 23.515625 -28.390625 C 22.398438 -29.128906 21.054688 -29.5 19.484375 -29.5 C 17.921875 -29.5 16.578125 -29.128906 15.453125 -28.390625 C 14.335938 -27.648438 13.5 -26.617188 12.9375 -25.296875 C 12.375 -23.972656 12.09375 -22.441406 12.09375 -20.703125 Z M 12.09375 -20.5 "/></g></g></g><g fill="#00334e" fill-opacity="1"><g transform="translate(85.941427, 63.206397)"><g><path d="M 17.671875 0.671875 C 14.984375 0.671875 12.6875 0.359375 10.78125 -0.265625 C 8.882812 -0.890625 7.328125 -1.671875 6.109375 -2.609375 C 4.898438 -3.554688 4.003906 -4.5 3.421875 -5.4375 C 2.835938 -6.382812 2.523438 -7.171875 2.484375 -7.796875 C 2.441406 -8.285156 2.585938 -8.675781 2.921875 -8.96875 C 3.253906 -9.257812 3.625 -9.40625 4.03125 -9.40625 L 9.34375 -9.40625 C 9.519531 -9.40625 9.675781 -9.382812 9.8125 -9.34375 C 9.945312 -9.300781 10.125 -9.164062 10.34375 -8.9375 C 10.925781 -8.445312 11.539062 -7.929688 12.1875 -7.390625 C 12.84375 -6.847656 13.617188 -6.382812 14.515625 -6 C 15.410156 -5.625 16.53125 -5.4375 17.875 -5.4375 C 19.625 -5.4375 21.09375 -5.785156 22.28125 -6.484375 C 23.46875 -7.179688 24.0625 -8.175781 24.0625 -9.46875 C 24.0625 -10.414062 23.800781 -11.179688 23.28125 -11.765625 C 22.769531 -12.347656 21.816406 -12.875 20.421875 -13.34375 C 19.035156 -13.8125 17.066406 -14.316406 14.515625 -14.859375 C 12.003906 -15.429688 9.921875 -16.164062 8.265625 -17.0625 C 6.609375 -17.957031 5.375 -19.078125 4.5625 -20.421875 C 3.757812 -21.773438 3.359375 -23.347656 3.359375 -25.140625 C 3.359375 -26.878906 3.882812 -28.546875 4.9375 -30.140625 C 5.988281 -31.734375 7.554688 -33.046875 9.640625 -34.078125 C 11.722656 -35.109375 14.3125 -35.625 17.40625 -35.625 C 19.820312 -35.625 21.925781 -35.316406 23.71875 -34.703125 C 25.507812 -34.097656 27 -33.347656 28.1875 -32.453125 C 29.375 -31.554688 30.28125 -30.648438 30.90625 -29.734375 C 31.539062 -28.816406 31.878906 -28.023438 31.921875 -27.359375 C 31.960938 -26.859375 31.828125 -26.460938 31.515625 -26.171875 C 31.203125 -25.878906 30.84375 -25.734375 30.4375 -25.734375 L 25.46875 -25.734375 C 25.25 -25.734375 25.046875 -25.773438 24.859375 -25.859375 C 24.679688 -25.953125 24.503906 -26.066406 24.328125 -26.203125 C 23.835938 -26.648438 23.300781 -27.128906 22.71875 -27.640625 C 22.132812 -28.160156 21.425781 -28.597656 20.59375 -28.953125 C 19.769531 -29.316406 18.6875 -29.5 17.34375 -29.5 C 15.632812 -29.5 14.332031 -29.128906 13.4375 -28.390625 C 12.539062 -27.648438 12.09375 -26.722656 12.09375 -25.609375 C 12.09375 -24.847656 12.304688 -24.1875 12.734375 -23.625 C 13.160156 -23.0625 14.019531 -22.53125 15.3125 -22.03125 C 16.613281 -21.539062 18.585938 -21.03125 21.234375 -20.5 C 24.234375 -19.957031 26.617188 -19.160156 28.390625 -18.109375 C 30.160156 -17.054688 31.414062 -15.847656 32.15625 -14.484375 C 32.894531 -13.117188 33.265625 -11.609375 33.265625 -9.953125 C 33.265625 -7.929688 32.671875 -6.113281 31.484375 -4.5 C 30.296875 -2.882812 28.546875 -1.617188 26.234375 -0.703125 C 23.929688 0.210938 21.078125 0.671875 17.671875 0.671875 Z M 17.671875 0.671875 "/></g></g></g><g fill="#00334e" fill-opacity="1"><g transform="translate(121.688609, 63.206397)"><g><path d="M 20.234375 0 C 17.546875 0 15.28125 -0.46875 13.4375 -1.40625 C 11.601562 -2.351562 10.238281 -3.753906 9.34375 -5.609375 C 8.445312 -7.472656 8 -9.789062 8 -12.5625 L 8 -27.828125 L 2.6875 -27.828125 C 2.238281 -27.828125 1.859375 -27.984375 1.546875 -28.296875 C 1.234375 -28.609375 1.078125 -29.007812 1.078125 -29.5 L 1.078125 -33.328125 C 1.078125 -33.773438 1.234375 -34.15625 1.546875 -34.46875 C 1.859375 -34.789062 2.238281 -34.953125 2.6875 -34.953125 L 8 -34.953125 L 8 -46.09375 C 8 -46.539062 8.144531 -46.921875 8.4375 -47.234375 C 8.726562 -47.554688 9.117188 -47.71875 9.609375 -47.71875 L 15.046875 -47.71875 C 15.492188 -47.71875 15.875 -47.554688 16.1875 -47.234375 C 16.507812 -46.921875 16.671875 -46.539062 16.671875 -46.09375 L 16.671875 -34.953125 L 25.0625 -34.953125 C 25.507812 -34.953125 25.890625 -34.789062 26.203125 -34.46875 C 26.515625 -34.15625 26.671875 -33.773438 26.671875 -33.328125 L 26.671875 -29.5 C 26.671875 -29.007812 26.515625 -28.609375 26.203125 -28.296875 C 25.890625 -27.984375 25.507812 -27.828125 25.0625 -27.828125 L 16.671875 -27.828125 L 16.671875 -13.234375 C 16.671875 -11.398438 16.992188 -9.96875 17.640625 -8.9375 C 18.285156 -7.90625 19.414062 -7.390625 21.03125 -7.390625 L 25.671875 -7.390625 C 26.117188 -7.390625 26.5 -7.234375 26.8125 -6.921875 C 27.125 -6.609375 27.28125 -6.226562 27.28125 -5.78125 L 27.28125 -1.609375 C 27.28125 -1.160156 27.125 -0.78125 26.8125 -0.46875 C 26.5 -0.15625 26.117188 0 25.671875 0 Z M 20.234375 0 "/></g></g></g><g fill="#00334e" fill-opacity="1"><g transform="translate(150.514804, 63.206397)"><g><path d="M 14.578125 0.671875 C 12.253906 0.671875 10.148438 0.210938 8.265625 -0.703125 C 6.378906 -1.617188 4.890625 -2.847656 3.796875 -4.390625 C 2.703125 -5.941406 2.15625 -7.679688 2.15625 -9.609375 C 2.15625 -12.742188 3.429688 -15.238281 5.984375 -17.09375 C 8.535156 -18.957031 11.875 -20.203125 16 -20.828125 L 25.203125 -22.171875 L 25.203125 -23.59375 C 25.203125 -25.46875 24.726562 -26.921875 23.78125 -27.953125 C 22.84375 -28.984375 21.234375 -29.5 18.953125 -29.5 C 17.335938 -29.5 16.023438 -29.171875 15.015625 -28.515625 C 14.003906 -27.867188 13.253906 -27.007812 12.765625 -25.9375 C 12.410156 -25.351562 11.894531 -25.0625 11.21875 -25.0625 L 5.90625 -25.0625 C 5.414062 -25.0625 5.046875 -25.195312 4.796875 -25.46875 C 4.554688 -25.738281 4.4375 -26.097656 4.4375 -26.546875 C 4.476562 -27.265625 4.78125 -28.140625 5.34375 -29.171875 C 5.90625 -30.203125 6.753906 -31.195312 7.890625 -32.15625 C 9.035156 -33.113281 10.523438 -33.929688 12.359375 -34.609375 C 14.203125 -35.285156 16.421875 -35.625 19.015625 -35.625 C 21.835938 -35.625 24.222656 -35.273438 26.171875 -34.578125 C 28.117188 -33.878906 29.675781 -32.945312 30.84375 -31.78125 C 32.007812 -30.625 32.859375 -29.257812 33.390625 -27.6875 C 33.929688 -26.113281 34.203125 -24.457031 34.203125 -22.71875 L 34.203125 -1.609375 C 34.203125 -1.160156 34.046875 -0.78125 33.734375 -0.46875 C 33.421875 -0.15625 33.039062 0 32.59375 0 L 27.15625 0 C 26.65625 0 26.257812 -0.15625 25.96875 -0.46875 C 25.675781 -0.78125 25.53125 -1.160156 25.53125 -1.609375 L 25.53125 -4.234375 C 24.945312 -3.429688 24.160156 -2.644531 23.171875 -1.875 C 22.191406 -1.113281 20.992188 -0.5 19.578125 -0.03125 C 18.171875 0.4375 16.503906 0.671875 14.578125 0.671875 Z M 16.875 -5.71875 C 18.4375 -5.71875 19.851562 -6.050781 21.125 -6.71875 C 22.40625 -7.394531 23.414062 -8.4375 24.15625 -9.84375 C 24.894531 -11.257812 25.265625 -13.039062 25.265625 -15.1875 L 25.265625 -16.59375 L 18.546875 -15.53125 C 15.898438 -15.125 13.925781 -14.472656 12.625 -13.578125 C 11.332031 -12.679688 10.6875 -11.582031 10.6875 -10.28125 C 10.6875 -9.289062 10.988281 -8.445312 11.59375 -7.75 C 12.195312 -7.0625 12.96875 -6.550781 13.90625 -6.21875 C 14.851562 -5.882812 15.84375 -5.71875 16.875 -5.71875 Z M 22.71875 -39.65625 C 21.550781 -39.65625 20.609375 -39.84375 19.890625 -40.21875 C 19.171875 -40.601562 18.507812 -40.992188 17.90625 -41.390625 C 17.300781 -41.796875 16.640625 -42 15.921875 -42 C 15.335938 -42 14.921875 -41.832031 14.671875 -41.5 C 14.429688 -41.164062 14.195312 -40.828125 13.96875 -40.484375 C 13.75 -40.148438 13.394531 -39.984375 12.90625 -39.984375 L 9.8125 -39.984375 C 9.5 -39.984375 9.226562 -40.09375 9 -40.3125 C 8.78125 -40.539062 8.671875 -40.8125 8.671875 -41.125 C 8.671875 -41.800781 8.789062 -42.550781 9.03125 -43.375 C 9.28125 -44.207031 9.671875 -45.003906 10.203125 -45.765625 C 10.742188 -46.523438 11.425781 -47.140625 12.25 -47.609375 C 13.082031 -48.078125 14.0625 -48.3125 15.1875 -48.3125 C 16.394531 -48.3125 17.359375 -48.117188 18.078125 -47.734375 C 18.796875 -47.359375 19.457031 -46.96875 20.0625 -46.5625 C 20.664062 -46.164062 21.328125 -45.96875 22.046875 -45.96875 C 22.617188 -45.96875 23.03125 -46.144531 23.28125 -46.5 C 23.53125 -46.863281 23.765625 -47.210938 23.984375 -47.546875 C 24.210938 -47.878906 24.570312 -48.046875 25.0625 -48.046875 L 28.15625 -48.046875 C 28.507812 -48.046875 28.785156 -47.921875 28.984375 -47.671875 C 29.191406 -47.429688 29.296875 -47.15625 29.296875 -46.84375 C 29.296875 -46.164062 29.171875 -45.410156 28.921875 -44.578125 C 28.679688 -43.753906 28.289062 -42.960938 27.75 -42.203125 C 27.21875 -41.441406 26.535156 -40.828125 25.703125 -40.359375 C 24.867188 -39.890625 23.875 -39.65625 22.71875 -39.65625 Z M 22.71875 -39.65625 "/></g></g></g><g fill="#00334e" fill-opacity="1"><g transform="translate(188.882547, 63.206397)"><g><path d="M 19.890625 0.671875 C 16.304688 0.671875 13.289062 0.046875 10.84375 -1.203125 C 8.40625 -2.460938 6.546875 -4.234375 5.265625 -6.515625 C 3.992188 -8.804688 3.269531 -11.472656 3.09375 -14.515625 C 3.050781 -15.316406 3.03125 -16.300781 3.03125 -17.46875 C 3.03125 -18.632812 3.050781 -19.625 3.09375 -20.4375 C 3.269531 -23.519531 4.019531 -26.191406 5.34375 -28.453125 C 6.664062 -30.722656 8.546875 -32.484375 10.984375 -33.734375 C 13.429688 -34.992188 16.398438 -35.625 19.890625 -35.625 C 23.390625 -35.625 26.359375 -34.992188 28.796875 -33.734375 C 31.234375 -32.484375 33.113281 -30.722656 34.4375 -28.453125 C 35.757812 -26.191406 36.507812 -23.519531 36.6875 -20.4375 C 36.738281 -19.625 36.765625 -18.632812 36.765625 -17.46875 C 36.765625 -16.300781 36.738281 -15.316406 36.6875 -14.515625 C 36.507812 -11.472656 35.78125 -8.804688 34.5 -6.515625 C 33.226562 -4.234375 31.367188 -2.460938 28.921875 -1.203125 C 26.484375 0.046875 23.472656 0.671875 19.890625 0.671875 Z M 19.890625 -5.984375 C 22.265625 -5.984375 24.101562 -6.734375 25.40625 -8.234375 C 26.707031 -9.734375 27.421875 -11.941406 27.546875 -14.859375 C 27.597656 -15.523438 27.625 -16.394531 27.625 -17.46875 C 27.625 -18.539062 27.597656 -19.414062 27.546875 -20.09375 C 27.421875 -23.007812 26.707031 -25.21875 25.40625 -26.71875 C 24.101562 -28.21875 22.265625 -28.96875 19.890625 -28.96875 C 17.515625 -28.96875 15.675781 -28.21875 14.375 -26.71875 C 13.082031 -25.21875 12.367188 -23.007812 12.234375 -20.09375 C 12.179688 -19.414062 12.15625 -18.539062 12.15625 -17.46875 C 12.15625 -16.394531 12.179688 -15.523438 12.234375 -14.859375 C 12.367188 -11.941406 13.082031 -9.734375 14.375 -8.234375 C 15.675781 -6.734375 17.515625 -5.984375 19.890625 -5.984375 Z M 19.890625 -5.984375 "/></g></g></g><g fill="#00334e" fill-opacity="1"><g transform="translate(228.66137, 63.206397)"><g/></g></g><g fill="#00334e" fill-opacity="1"><g transform="translate(244.048754, 63.206397)"><g><path d="M 17.40625 0.671875 C 15.070312 0.671875 13.019531 0.28125 11.25 -0.5 C 9.488281 -1.289062 8.023438 -2.398438 6.859375 -3.828125 C 5.691406 -5.265625 4.789062 -6.957031 4.15625 -8.90625 C 3.53125 -10.851562 3.175781 -12.992188 3.09375 -15.328125 C 3.050781 -16.128906 3.03125 -16.851562 3.03125 -17.5 C 3.03125 -18.15625 3.050781 -18.882812 3.09375 -19.6875 C 3.175781 -21.925781 3.519531 -24.007812 4.125 -25.9375 C 4.738281 -27.863281 5.640625 -29.554688 6.828125 -31.015625 C 8.015625 -32.472656 9.488281 -33.601562 11.25 -34.40625 C 13.019531 -35.21875 15.070312 -35.625 17.40625 -35.625 C 19.820312 -35.625 21.867188 -35.207031 23.546875 -34.375 C 25.234375 -33.539062 26.632812 -32.476562 27.75 -31.1875 L 27.75 -46.09375 C 27.75 -46.539062 27.894531 -46.921875 28.1875 -47.234375 C 28.476562 -47.554688 28.875 -47.71875 29.375 -47.71875 L 35.078125 -47.71875 C 35.523438 -47.71875 35.90625 -47.554688 36.21875 -47.234375 C 36.53125 -46.921875 36.6875 -46.539062 36.6875 -46.09375 L 36.6875 -1.609375 C 36.6875 -1.160156 36.53125 -0.78125 36.21875 -0.46875 C 35.90625 -0.15625 35.523438 0 35.078125 0 L 29.765625 0 C 29.273438 0 28.882812 -0.15625 28.59375 -0.46875 C 28.300781 -0.78125 28.15625 -1.160156 28.15625 -1.609375 L 28.15625 -4.09375 C 27.039062 -2.707031 25.617188 -1.566406 23.890625 -0.671875 C 22.160156 0.222656 20 0.671875 17.40625 0.671875 Z M 19.890625 -6.515625 C 21.773438 -6.515625 23.273438 -6.941406 24.390625 -7.796875 C 25.515625 -8.648438 26.34375 -9.734375 26.875 -11.046875 C 27.414062 -12.367188 27.707031 -13.726562 27.75 -15.125 C 27.800781 -15.925781 27.828125 -16.785156 27.828125 -17.703125 C 27.828125 -18.617188 27.800781 -19.484375 27.75 -20.296875 C 27.707031 -21.640625 27.394531 -22.925781 26.8125 -24.15625 C 26.226562 -25.382812 25.375 -26.398438 24.25 -27.203125 C 23.132812 -28.015625 21.679688 -28.421875 19.890625 -28.421875 C 18.003906 -28.421875 16.515625 -28.003906 15.421875 -27.171875 C 14.328125 -26.347656 13.53125 -25.265625 13.03125 -23.921875 C 12.539062 -22.578125 12.25 -21.097656 12.15625 -19.484375 C 12.113281 -18.140625 12.113281 -16.796875 12.15625 -15.453125 C 12.25 -13.835938 12.539062 -12.359375 13.03125 -11.015625 C 13.53125 -9.671875 14.328125 -8.582031 15.421875 -7.75 C 16.515625 -6.925781 18.003906 -6.515625 19.890625 -6.515625 Z M 19.890625 -6.515625 "/></g></g></g><g fill="#00334e" fill-opacity="1"><g transform="translate(285.238657, 63.206397)"><g><path d="M 19.484375 0.671875 C 14.515625 0.671875 10.570312 -0.757812 7.65625 -3.625 C 4.75 -6.5 3.179688 -10.578125 2.953125 -15.859375 C 2.910156 -16.304688 2.890625 -16.875 2.890625 -17.5625 C 2.890625 -18.257812 2.910156 -18.8125 2.953125 -19.21875 C 3.128906 -22.625 3.898438 -25.546875 5.265625 -27.984375 C 6.640625 -30.429688 8.535156 -32.316406 10.953125 -33.640625 C 13.367188 -34.960938 16.210938 -35.625 19.484375 -35.625 C 23.117188 -35.625 26.164062 -34.867188 28.625 -33.359375 C 31.09375 -31.859375 32.953125 -29.773438 34.203125 -27.109375 C 35.460938 -24.453125 36.09375 -21.375 36.09375 -17.875 L 36.09375 -16.46875 C 36.09375 -16.019531 35.929688 -15.640625 35.609375 -15.328125 C 35.296875 -15.015625 34.894531 -14.859375 34.40625 -14.859375 L 12.09375 -14.859375 C 12.09375 -14.859375 12.09375 -14.789062 12.09375 -14.65625 C 12.09375 -14.519531 12.09375 -14.40625 12.09375 -14.3125 C 12.132812 -12.75 12.4375 -11.304688 13 -9.984375 C 13.5625 -8.660156 14.390625 -7.59375 15.484375 -6.78125 C 16.585938 -5.976562 17.898438 -5.578125 19.421875 -5.578125 C 20.671875 -5.578125 21.722656 -5.765625 22.578125 -6.140625 C 23.429688 -6.523438 24.125 -6.960938 24.65625 -7.453125 C 25.195312 -7.953125 25.582031 -8.359375 25.8125 -8.671875 C 26.207031 -9.203125 26.53125 -9.523438 26.78125 -9.640625 C 27.03125 -9.753906 27.398438 -9.8125 27.890625 -9.8125 L 33.671875 -9.8125 C 34.117188 -9.8125 34.488281 -9.675781 34.78125 -9.40625 C 35.070312 -9.132812 35.191406 -8.800781 35.140625 -8.40625 C 35.097656 -7.6875 34.726562 -6.8125 34.03125 -5.78125 C 33.34375 -4.75 32.347656 -3.738281 31.046875 -2.75 C 29.742188 -1.769531 28.117188 -0.953125 26.171875 -0.296875 C 24.222656 0.347656 21.992188 0.671875 19.484375 0.671875 Z M 12.09375 -20.5 L 26.953125 -20.5 L 26.953125 -20.703125 C 26.953125 -22.441406 26.660156 -23.972656 26.078125 -25.296875 C 25.492188 -26.617188 24.640625 -27.648438 23.515625 -28.390625 C 22.398438 -29.128906 21.054688 -29.5 19.484375 -29.5 C 17.921875 -29.5 16.578125 -29.128906 15.453125 -28.390625 C 14.335938 -27.648438 13.5 -26.617188 12.9375 -25.296875 C 12.375 -23.972656 12.09375 -22.441406 12.09375 -20.703125 Z M 12.09375 -20.5 "/></g></g></g><g fill="#e0f7fa" fill-opacity="1"><g transform="translate(324.010991, 63.206397)"><g/></g></g><g fill="#f205e2" fill-opacity="1"><g transform="translate(339.403036, 63.206397)"><g><path d="M 21.109375 0.671875 C 15.234375 0.671875 10.554688 -0.769531 7.078125 -3.65625 C 3.609375 -6.550781 1.875 -11.132812 1.875 -17.40625 C 1.875 -17.5 1.875 -17.585938 1.875 -17.671875 C 1.875 -17.765625 1.875 -17.832031 1.875 -17.875 C 1.96875 -21.726562 2.804688 -24.972656 4.390625 -27.609375 C 5.984375 -30.253906 8.203125 -32.25 11.046875 -33.59375 C 13.898438 -34.945312 17.226562 -35.625 21.03125 -35.625 C 25.425781 -35.625 29.035156 -34.78125 31.859375 -33.09375 C 34.679688 -31.414062 36.773438 -29.195312 38.140625 -26.4375 C 39.503906 -23.6875 40.1875 -20.65625 40.1875 -17.34375 L 40.1875 -15.328125 C 40.1875 -14.828125 40.003906 -14.394531 39.640625 -14.03125 C 39.285156 -13.675781 38.863281 -13.5 38.375 -13.5 L 18.34375 -13.5 C 18.34375 -13.457031 18.34375 -13.414062 18.34375 -13.375 C 18.34375 -13.332031 18.34375 -13.265625 18.34375 -13.171875 C 18.34375 -12.273438 18.421875 -11.523438 18.578125 -10.921875 C 18.734375 -10.316406 19.015625 -9.859375 19.421875 -9.546875 C 19.828125 -9.234375 20.34375 -9.078125 20.96875 -9.078125 C 21.238281 -9.078125 21.472656 -9.117188 21.671875 -9.203125 C 21.867188 -9.296875 22.066406 -9.441406 22.265625 -9.640625 C 22.472656 -9.847656 22.691406 -10.0625 22.921875 -10.28125 C 23.316406 -10.6875 23.648438 -10.941406 23.921875 -11.046875 C 24.191406 -11.160156 24.597656 -11.21875 25.140625 -11.21875 L 37.828125 -11.21875 C 38.273438 -11.21875 38.644531 -11.082031 38.9375 -10.8125 C 39.226562 -10.550781 39.351562 -10.195312 39.3125 -9.75 C 39.269531 -8.894531 38.878906 -7.875 38.140625 -6.6875 C 37.398438 -5.5 36.289062 -4.34375 34.8125 -3.21875 C 33.332031 -2.101562 31.445312 -1.175781 29.15625 -0.4375 C 26.875 0.300781 24.191406 0.671875 21.109375 0.671875 Z M 18.34375 -21.90625 L 23.71875 -21.90625 L 23.71875 -21.96875 C 23.71875 -22.957031 23.617188 -23.765625 23.421875 -24.390625 C 23.222656 -25.015625 22.921875 -25.472656 22.515625 -25.765625 C 22.109375 -26.054688 21.613281 -26.203125 21.03125 -26.203125 C 20.445312 -26.203125 19.953125 -26.054688 19.546875 -25.765625 C 19.148438 -25.472656 18.847656 -25.015625 18.640625 -24.390625 C 18.441406 -23.765625 18.34375 -22.957031 18.34375 -21.96875 Z M 18.34375 -21.90625 "/></g></g></g><g fill="#f205e2" fill-opacity="1"><g transform="translate(381.264858, 63.206397)"><g><path d="M 15.796875 0 C 15.117188 0 14.632812 -0.175781 14.34375 -0.53125 C 14.050781 -0.894531 13.796875 -1.28125 13.578125 -1.6875 L 0.671875 -32.859375 C 0.628906 -32.992188 0.609375 -33.148438 0.609375 -33.328125 C 0.609375 -33.773438 0.765625 -34.15625 1.078125 -34.46875 C 1.390625 -34.789062 1.769531 -34.953125 2.21875 -34.953125 L 13.578125 -34.953125 C 14.242188 -34.953125 14.742188 -34.769531 15.078125 -34.40625 C 15.421875 -34.050781 15.660156 -33.691406 15.796875 -33.328125 L 21.171875 -17.671875 L 26.546875 -33.328125 C 26.679688 -33.691406 26.914062 -34.050781 27.25 -34.40625 C 27.582031 -34.769531 28.085938 -34.953125 28.765625 -34.953125 L 40.125 -34.953125 C 40.570312 -34.953125 40.953125 -34.789062 41.265625 -34.46875 C 41.578125 -34.15625 41.734375 -33.773438 41.734375 -33.328125 C 41.734375 -33.148438 41.710938 -32.992188 41.671875 -32.859375 L 28.765625 -1.6875 C 28.585938 -1.28125 28.335938 -0.894531 28.015625 -0.53125 C 27.703125 -0.175781 27.210938 0 26.546875 0 Z M 15.796875 0 "/></g></g></g><g fill="#f205e2" fill-opacity="1"><g transform="translate(423.597037, 63.206397)"><g><path d="M 21.109375 0.671875 C 15.234375 0.671875 10.554688 -0.769531 7.078125 -3.65625 C 3.609375 -6.550781 1.875 -11.132812 1.875 -17.40625 C 1.875 -17.5 1.875 -17.585938 1.875 -17.671875 C 1.875 -17.765625 1.875 -17.832031 1.875 -17.875 C 1.96875 -21.726562 2.804688 -24.972656 4.390625 -27.609375 C 5.984375 -30.253906 8.203125 -32.25 11.046875 -33.59375 C 13.898438 -34.945312 17.226562 -35.625 21.03125 -35.625 C 25.425781 -35.625 29.035156 -34.78125 31.859375 -33.09375 C 34.679688 -31.414062 36.773438 -29.195312 38.140625 -26.4375 C 39.503906 -23.6875 40.1875 -20.65625 40.1875 -17.34375 L 40.1875 -15.328125 C 40.1875 -14.828125 40.003906 -14.394531 39.640625 -14.03125 C 39.285156 -13.675781 38.863281 -13.5 38.375 -13.5 L 18.34375 -13.5 C 18.34375 -13.457031 18.34375 -13.414062 18.34375 -13.375 C 18.34375 -13.332031 18.34375 -13.265625 18.34375 -13.171875 C 18.34375 -12.273438 18.421875 -11.523438 18.578125 -10.921875 C 18.734375 -10.316406 19.015625 -9.859375 19.421875 -9.546875 C 19.828125 -9.234375 20.34375 -9.078125 20.96875 -9.078125 C 21.238281 -9.078125 21.472656 -9.117188 21.671875 -9.203125 C 21.867188 -9.296875 22.066406 -9.441406 22.265625 -9.640625 C 22.472656 -9.847656 22.691406 -10.0625 22.921875 -10.28125 C 23.316406 -10.6875 23.648438 -10.941406 23.921875 -11.046875 C 24.191406 -11.160156 24.597656 -11.21875 25.140625 -11.21875 L 37.828125 -11.21875 C 38.273438 -11.21875 38.644531 -11.082031 38.9375 -10.8125 C 39.226562 -10.550781 39.351562 -10.195312 39.3125 -9.75 C 39.269531 -8.894531 38.878906 -7.875 38.140625 -6.6875 C 37.398438 -5.5 36.289062 -4.34375 34.8125 -3.21875 C 33.332031 -2.101562 31.445312 -1.175781 29.15625 -0.4375 C 26.875 0.300781 24.191406 0.671875 21.109375 0.671875 Z M 18.34375 -21.90625 L 23.71875 -21.90625 L 23.71875 -21.96875 C 23.71875 -22.957031 23.617188 -23.765625 23.421875 -24.390625 C 23.222656 -25.015625 22.921875 -25.472656 22.515625 -25.765625 C 22.109375 -26.054688 21.613281 -26.203125 21.03125 -26.203125 C 20.445312 -26.203125 19.953125 -26.054688 19.546875 -25.765625 C 19.148438 -25.472656 18.847656 -25.015625 18.640625 -24.390625 C 18.441406 -23.765625 18.34375 -22.957031 18.34375 -21.96875 Z M 18.34375 -21.90625 "/></g></g></g><g fill="#f205e2" fill-opacity="1"><g transform="translate(465.458859, 63.206397)"><g><path d="M 4.84375 0 C 4.34375 0 3.914062 -0.175781 3.5625 -0.53125 C 3.207031 -0.894531 3.03125 -1.320312 3.03125 -1.8125 L 3.03125 -33.125 C 3.03125 -33.625 3.207031 -34.050781 3.5625 -34.40625 C 3.914062 -34.769531 4.34375 -34.953125 4.84375 -34.953125 L 16.59375 -34.953125 C 17.09375 -34.953125 17.519531 -34.769531 17.875 -34.40625 C 18.226562 -34.050781 18.40625 -33.625 18.40625 -33.125 L 18.40625 -30.90625 C 19.53125 -32.207031 21.078125 -33.316406 23.046875 -34.234375 C 25.015625 -35.160156 27.1875 -35.625 29.5625 -35.625 C 31.851562 -35.625 33.984375 -35.082031 35.953125 -34 C 37.921875 -32.925781 39.519531 -31.269531 40.75 -29.03125 C 41.988281 -26.789062 42.609375 -23.898438 42.609375 -20.359375 L 42.609375 -1.8125 C 42.609375 -1.320312 42.425781 -0.894531 42.0625 -0.53125 C 41.707031 -0.175781 41.285156 0 40.796875 0 L 27.953125 0 C 27.460938 0 27.035156 -0.175781 26.671875 -0.53125 C 26.316406 -0.894531 26.140625 -1.320312 26.140625 -1.8125 L 26.140625 -19.890625 C 26.140625 -21.097656 25.847656 -22.015625 25.265625 -22.640625 C 24.679688 -23.273438 23.851562 -23.59375 22.78125 -23.59375 C 21.707031 -23.59375 20.878906 -23.273438 20.296875 -22.640625 C 19.710938 -22.015625 19.421875 -21.097656 19.421875 -19.890625 L 19.421875 -1.8125 C 19.421875 -1.320312 19.238281 -0.894531 18.875 -0.53125 C 18.519531 -0.175781 18.097656 0 17.609375 0 Z M 4.84375 0 "/></g></g></g><g fill="#f205e2" fill-opacity="1"><g transform="translate(510.747576, 63.206397)"><g><path d="M 24.65625 0 C 21.4375 0 18.5625 -0.4375 16.03125 -1.3125 C 13.5 -2.1875 11.503906 -3.675781 10.046875 -5.78125 C 8.585938 -7.882812 7.859375 -10.773438 7.859375 -14.453125 L 7.859375 -23.1875 L 2.546875 -23.1875 C 2.054688 -23.1875 1.628906 -23.363281 1.265625 -23.71875 C 0.910156 -24.082031 0.734375 -24.507812 0.734375 -25 L 0.734375 -33.125 C 0.734375 -33.625 0.910156 -34.050781 1.265625 -34.40625 C 1.628906 -34.769531 2.054688 -34.953125 2.546875 -34.953125 L 7.859375 -34.953125 L 7.859375 -45.90625 C 7.859375 -46.394531 8.035156 -46.816406 8.390625 -47.171875 C 8.753906 -47.535156 9.179688 -47.71875 9.671875 -47.71875 L 21.4375 -47.71875 C 21.925781 -47.71875 22.347656 -47.535156 22.703125 -47.171875 C 23.066406 -46.816406 23.25 -46.394531 23.25 -45.90625 L 23.25 -34.953125 L 31.71875 -34.953125 C 32.207031 -34.953125 32.628906 -34.769531 32.984375 -34.40625 C 33.347656 -34.050781 33.53125 -33.625 33.53125 -33.125 L 33.53125 -25 C 33.53125 -24.507812 33.347656 -24.082031 32.984375 -23.71875 C 32.628906 -23.363281 32.207031 -23.1875 31.71875 -23.1875 L 23.25 -23.1875 L 23.25 -15.796875 C 23.25 -14.765625 23.484375 -13.945312 23.953125 -13.34375 C 24.421875 -12.738281 25.148438 -12.4375 26.140625 -12.4375 L 32.25 -12.4375 C 32.75 -12.4375 33.175781 -12.253906 33.53125 -11.890625 C 33.894531 -11.535156 34.078125 -11.113281 34.078125 -10.625 L 34.078125 -1.8125 C 34.078125 -1.320312 33.894531 -0.894531 33.53125 -0.53125 C 33.175781 -0.175781 32.75 0 32.25 0 Z M 24.65625 0 "/></g></g></g><g fill="#f205e2" fill-opacity="1"><g transform="translate(546.494745, 63.206397)"><g><path d="M 21.578125 0.671875 C 17.453125 0.671875 13.976562 0.113281 11.15625 -1 C 8.332031 -2.125 6.171875 -3.804688 4.671875 -6.046875 C 3.171875 -8.285156 2.304688 -11.039062 2.078125 -14.3125 C 2.035156 -15.34375 2.015625 -16.40625 2.015625 -17.5 C 2.015625 -18.601562 2.035156 -19.644531 2.078125 -20.625 C 2.304688 -23.945312 3.226562 -26.710938 4.84375 -28.921875 C 6.457031 -31.140625 8.671875 -32.8125 11.484375 -33.9375 C 14.304688 -35.0625 17.671875 -35.625 21.578125 -35.625 C 25.472656 -35.625 28.832031 -35.0625 31.65625 -33.9375 C 34.476562 -32.8125 36.691406 -31.140625 38.296875 -28.921875 C 39.910156 -26.710938 40.832031 -23.945312 41.0625 -20.625 C 41.15625 -19.644531 41.203125 -18.601562 41.203125 -17.5 C 41.203125 -16.40625 41.15625 -15.34375 41.0625 -14.3125 C 40.832031 -11.039062 39.96875 -8.285156 38.46875 -6.046875 C 36.96875 -3.804688 34.804688 -2.125 31.984375 -1 C 29.160156 0.113281 25.691406 0.671875 21.578125 0.671875 Z M 21.578125 -10.078125 C 22.867188 -10.078125 23.671875 -10.445312 23.984375 -11.1875 C 24.304688 -11.925781 24.507812 -13.082031 24.59375 -14.65625 C 24.632812 -15.320312 24.65625 -16.257812 24.65625 -17.46875 C 24.65625 -18.675781 24.632812 -19.617188 24.59375 -20.296875 C 24.507812 -21.773438 24.304688 -22.90625 23.984375 -23.6875 C 23.671875 -24.46875 22.867188 -24.859375 21.578125 -24.859375 C 20.316406 -24.859375 19.519531 -24.46875 19.1875 -23.6875 C 18.851562 -22.90625 18.640625 -21.773438 18.546875 -20.296875 C 18.503906 -19.617188 18.484375 -18.675781 18.484375 -17.46875 C 18.484375 -16.257812 18.503906 -15.320312 18.546875 -14.65625 C 18.640625 -13.082031 18.851562 -11.925781 19.1875 -11.1875 C 19.519531 -10.445312 20.316406 -10.078125 21.578125 -10.078125 Z M 21.578125 -10.078125 "/></g></g></g><g fill="#f205e2" fill-opacity="1"><g transform="translate(589.63328, 63.206397)"><g><path d="M 19.421875 0.671875 C 16.191406 0.671875 13.445312 0.347656 11.1875 -0.296875 C 8.925781 -0.953125 7.085938 -1.78125 5.671875 -2.78125 C 4.265625 -3.789062 3.222656 -4.84375 2.546875 -5.9375 C 1.878906 -7.039062 1.523438 -8.039062 1.484375 -8.9375 C 1.429688 -9.425781 1.570312 -9.847656 1.90625 -10.203125 C 2.25 -10.566406 2.644531 -10.75 3.09375 -10.75 L 14.78125 -10.75 C 14.832031 -10.75 14.878906 -10.75 14.921875 -10.75 C 14.960938 -10.75 15.003906 -10.75 15.046875 -10.75 C 15.628906 -10.707031 16.15625 -10.515625 16.625 -10.171875 C 17.101562 -9.835938 17.597656 -9.515625 18.109375 -9.203125 C 18.628906 -8.890625 19.222656 -8.734375 19.890625 -8.734375 C 20.253906 -8.734375 20.601562 -8.820312 20.9375 -9 C 21.269531 -9.1875 21.4375 -9.4375 21.4375 -9.75 C 21.4375 -10.144531 21.3125 -10.5 21.0625 -10.8125 C 20.820312 -11.132812 20.21875 -11.460938 19.25 -11.796875 C 18.289062 -12.128906 16.691406 -12.5 14.453125 -12.90625 C 12.390625 -13.300781 10.414062 -13.925781 8.53125 -14.78125 C 6.65625 -15.632812 5.125 -16.820312 3.9375 -18.34375 C 2.75 -19.863281 2.15625 -21.789062 2.15625 -24.125 C 2.15625 -26.050781 2.800781 -27.882812 4.09375 -29.625 C 5.394531 -31.375 7.3125 -32.8125 9.84375 -33.9375 C 12.375 -35.0625 15.476562 -35.625 19.15625 -35.625 C 21.925781 -35.625 24.382812 -35.304688 26.53125 -34.671875 C 28.6875 -34.046875 30.515625 -33.238281 32.015625 -32.25 C 33.523438 -31.269531 34.679688 -30.21875 35.484375 -29.09375 C 36.285156 -27.976562 36.710938 -26.945312 36.765625 -26 C 36.804688 -25.507812 36.671875 -25.082031 36.359375 -24.71875 C 36.046875 -24.363281 35.6875 -24.1875 35.28125 -24.1875 L 24.65625 -24.1875 C 24.570312 -24.1875 24.460938 -24.1875 24.328125 -24.1875 C 24.191406 -24.1875 24.078125 -24.1875 23.984375 -24.1875 C 23.359375 -24.1875 22.800781 -24.351562 22.3125 -24.6875 C 21.820312 -25.03125 21.328125 -25.367188 20.828125 -25.703125 C 20.335938 -26.035156 19.753906 -26.203125 19.078125 -26.203125 C 18.765625 -26.203125 18.460938 -26.101562 18.171875 -25.90625 C 17.878906 -25.707031 17.734375 -25.453125 17.734375 -25.140625 C 17.734375 -24.773438 17.867188 -24.425781 18.140625 -24.09375 C 18.410156 -23.757812 19.0625 -23.445312 20.09375 -23.15625 C 21.125 -22.863281 22.804688 -22.535156 25.140625 -22.171875 C 28.359375 -21.722656 30.929688 -20.894531 32.859375 -19.6875 C 34.785156 -18.476562 36.160156 -17.085938 36.984375 -15.515625 C 37.816406 -13.953125 38.234375 -12.410156 38.234375 -10.890625 C 38.234375 -8.515625 37.503906 -6.453125 36.046875 -4.703125 C 34.597656 -2.953125 32.472656 -1.617188 29.671875 -0.703125 C 26.867188 0.210938 23.453125 0.671875 19.421875 0.671875 Z M 19.421875 0.671875 "/></g></g></g></g></g></g></g></g></g></svg>