<svg xmlns="http://www.w3.org/2000/svg" xmlns:xlink="http://www.w3.org/1999/xlink" width="1302" zoomAndPan="magnify" viewBox="0 0 976.5 515.249984" height="687" preserveAspectRatio="xMidYMid meet" version="1.0"><defs><g/><clipPath id="46fb3b6c38"><path d="M 13 0 L 975.539062 0 L 975.539062 502 L 13 502 Z M 13 0 " clip-rule="nonzero"/></clipPath><clipPath id="3afdd1afe2"><path d="M 6.363281 118 L 234 118 L 234 404 L 6.363281 404 Z M 6.363281 118 " clip-rule="nonzero"/></clipPath><clipPath id="16ae48f76d"><path d="M 444 0 L 962.539062 0 L 962.539062 479.675781 L 444 479.675781 Z M 444 0 " clip-rule="nonzero"/></clipPath><clipPath id="d21ab0edd6"><path d="M 0.878906 421 L 631 421 L 631 501.351562 L 0.878906 501.351562 Z M 0.878906 421 " clip-rule="nonzero"/></clipPath><clipPath id="6b10ad8fa9"><rect x="0" width="631" y="0" height="81"/></clipPath><clipPath id="0b26a31cd1"><rect x="0" width="963" y="0" height="502"/></clipPath></defs><g clip-path="url(#46fb3b6c38)"><g transform="matrix(1, 0, 0, 1, 13, 0)"><g clip-path="url(#0b26a31cd1)"><g clip-path="url(#3afdd1afe2)"><path fill="#5005f2" d="M 120.203125 297.925781 C 120.203125 297.925781 113.46875 304.359375 113.199219 308.699219 C 113.148438 309.808594 113.328125 310.882812 113.738281 311.914062 C 113.964844 312.429688 114.421875 313.476562 115.355469 314.058594 C 116.863281 315.019531 118.882812 314.320312 119.660156 314.058594 C 126.417969 311.824219 119.132812 316.5625 133.667969 310.84375 C 148.460938 304.992188 160.058594 298.992188 160.058594 298.992188 C 173.179688 292.199219 179.742188 288.8125 183.761719 285.53125 C 187.847656 282.1875 193.105469 280.253906 196.683594 276.375 C 197.367188 275.632812 199.1875 273.558594 201.53125 273.675781 C 203.042969 273.757812 204.207031 274.804688 204.75 275.292969 C 206.355469 276.722656 206.976562 278.378906 207.441406 279.605469 C 210.464844 287.554688 209.425781 283.460938 210.660156 287.683594 C 213.347656 296.777344 214.691406 301.328125 215.507812 307.074219 C 216.222656 312.21875 217.269531 319.464844 216.046875 328.617188 C 215.46875 332.9375 213.800781 344.464844 205.8125 356.089844 C 200.011719 364.53125 193.488281 369.230469 184.808594 375.480469 C 180.386719 378.75 175.71875 381.625 170.804688 384.097656 C 169.167969 384.910156 162.65625 388.105469 149.796875 391.636719 C 144.433594 393.109375 139.652344 394.183594 123.941406 397.023438 C 109.535156 399.632812 102.328125 400.933594 99.164062 401.316406 C 80.972656 403.609375 66.988281 403.203125 58.765625 402.929688 C 50.183594 402.644531 43.363281 402.019531 36.144531 400.785156 C 25.246094 398.910156 19.695312 397.886719 15.136719 393.785156 C 7.628906 387.042969 6.816406 376.980469 6.519531 373.316406 C 5.855469 365.09375 8.1875 358.851562 10.289062 353.386719 C 12.5625 347.480469 14.9375 343.949219 22.140625 333.460938 C 31.734375 319.488281 36.53125 312.5 37.757812 310.835938 C 40.460938 307.179688 48.984375 295.738281 61.996094 280.675781 C 74.605469 266.078125 84.410156 256.199219 97.007812 243.492188 C 98.332031 242.15625 116.617188 223.777344 128.785156 213.328125 C 130.8125 211.585938 139.265625 204.796875 142.25 202.019531 C 143.453125 200.902344 144.691406 199.585938 146.023438 198.800781 C 146.792969 198.335938 147.378906 197.59375 148.167969 197.183594 C 148.414062 197.070312 148.59375 196.890625 148.703125 196.644531 C 148.765625 196.464844 148.765625 196.285156 148.703125 196.109375 C 148.65625 195.976562 148.566406 195.832031 148.167969 195.566406 C 147.847656 195.316406 147.488281 195.136719 147.09375 195.027344 C 146.738281 194.96875 146.378906 194.96875 146.023438 195.027344 L 138.515625 195.027344 C 126.230469 195.027344 119.121094 196.101562 119.121094 196.101562 C 111.648438 197.28125 104.46875 199.433594 97.578125 202.5625 C 91.285156 205.421875 90.785156 206.644531 86.804688 207.410156 C 77.582031 209.195312 69.8125 204.648438 69.03125 204.191406 C 59.667969 198.535156 57.175781 188.230469 55.566406 181.570312 C 53.851562 174.488281 54.242188 168.699219 54.496094 165.410156 C 54.851562 160.40625 55.210938 155.890625 57.714844 151.40625 C 60.609375 146.25 65.066406 143.488281 70.640625 140.632812 C 82.761719 134.433594 94.320312 130.792969 110.5 126.628906 C 121.582031 123.769531 127.148438 122.339844 133.660156 121.246094 C 144.53125 119.371094 155.484375 118.476562 166.515625 118.554688 C 181.566406 118.703125 189.199219 118.777344 198.832031 122.859375 C 205.511719 125.679688 211.433594 129.628906 216.605469 134.710938 C 222.253906 140.371094 225.316406 145.996094 227.378906 149.792969 C 229.347656 153.414062 231.023438 156.539062 232.226562 161.101562 C 234.050781 168.011719 233.585938 173.644531 233.300781 176.722656 C 232.941406 180.550781 232.164062 188.1875 227.371094 196.113281 C 225.097656 199.875 222.839844 202.191406 218.753906 206.347656 C 215.894531 209.265625 213.339844 211.511719 206.367188 217.121094 C 196.5 225.050781 194.382812 226.367188 188.589844 231.125 C 184.058594 234.851562 181.261719 237.414062 174.589844 243.511719 C 154.015625 262.320312 141.945312 273.335938 130.972656 284.984375 C 119.296875 297.378906 125.203125 293.140625 120.203125 297.925781 Z M 120.203125 297.925781 " fill-opacity="1" fill-rule="nonzero"/></g><path stroke-linecap="butt" transform="matrix(0.357529, 0, 0, 0.357529, 6.436317, -0.000000000000121261)" fill-opacity="1" fill="#5005f2" fill-rule="nonzero" stroke-linejoin="miter" d="M 1205.544611 614.843545 C 1202.004686 594.871372 1196.978865 575.292525 1190.467151 556.085151 C 1179.333866 523.504726 1166.474322 500.189291 1157.329514 483.778895 C 1148.796546 468.471995 1141.334295 455.13172 1128.704191 438.579291 C 1115.200031 420.923366 1103.826381 406.053493 1083.515512 391.882866 C 1057.512355 373.724359 1026.985961 363.825678 1017.218388 364.765288 C 1013.099401 365.147687 1009.952801 364.524923 1003.6596 363.246616 C 1000.655033 362.645703 998.240454 361.96831 997.661392 360.252976 C 996.983999 358.297276 999.933937 352.299069 999.158213 354.254768 C 999.158213 354.254768 1006.314544 335.834045 1012.717002 321.106207 C 1022.539202 298.55557 1023.435109 301.243291 1032.306775 280.440766 C 1040.675858 260.80729 1039.790876 258.654928 1045.865563 248.79995 C 1049.897145 242.550452 1053.415219 236.016886 1056.40886 229.210177 C 1058.419188 224.86175 1059.926934 220.349438 1060.932098 215.662314 C 1061.489309 212.767005 1062.439844 206.659541 1062.439844 206.659541 L 1054.901114 191.593006 C 1052.16969 186.141083 1038.053691 159.995893 1012.717002 134.342359 C 988.254368 109.56288 972.718028 93.840803 946.430804 87.635008 C 913.216688 79.81221 885.126723 92.420463 875.632293 96.637781 C 847.094375 109.453623 831.361373 129.709863 819.889392 144.852878 C 802.146062 168.255719 795.098988 188.173263 785.24401 214.154568 C 756.891829 288.809849 762.682448 262.424293 738.536659 328.644937 C 721.853122 374.401752 695.762559 446.642454 672.250462 545.574632 C 656.659493 610.9977 649.00058 659.595196 642.09554 703.735008 C 633.835714 756.254829 628.471198 801.48721 627.029006 854.378505 C 625.346448 916.30535 630.405046 938.506364 636.031779 955.310085 C 641.352593 971.097716 656.167837 1008.791367 691.77468 1041.186056 C 706.764735 1054.843176 723.448273 1070.008042 749.025328 1075.842364 C 766.63755 1079.841168 792.433118 1080.332825 803.260483 1078.836004 C 809.25869 1078.016577 815.37708 1078.388051 821.331584 1077.328258 C 824.325225 1076.618088 827.329791 1076.618088 830.334358 1077.328258 C 833.076707 1078.180463 835.545915 1079.535249 837.74198 1081.392617 C 840.670066 1083.687013 843.226679 1086.352883 845.400892 1089.390227 C 849.399697 1094.711041 854.818842 1097.060065 864.97974 1101.452195 C 912.790586 1122.003429 952.439937 1118.004625 952.439937 1118.004625 C 978.082545 1115.404309 995.203111 1107.002449 1018.726134 1095.399359 C 1034.732279 1087.521933 1068.853228 1070.346738 1101.586613 1035.144146 C 1124.115398 1010.900026 1135.718488 989.13604 1149.790784 962.826964 C 1165.370827 933.436841 1177.924451 902.80119 1187.462584 870.930934 C 1205.118509 812.336426 1208.024744 765.54167 1210.045998 729.322988 C 1211.925218 695.999615 1213.684255 660.512954 1205.544611 614.843545 Z M 1017.218388 656.99488 C 1007.811364 721.281676 991.969105 769.005116 988.60399 779.002128 C 973.286165 824.431172 965.6054 847.134768 946.408952 873.913649 C 927.048619 900.911044 884.875432 947.629321 859.036161 937.195281 C 848.165094 932.803151 844.155363 919.899904 839.446388 904.035793 C 832.246354 879.758897 830.367135 852.193366 842.450955 791.042245 C 846.001806 773.113178 849.345069 756.167423 854.086821 738.161876 C 858.369694 721.860738 863.526622 705.843667 869.568532 690.110665 C 881.564946 658.666512 879.281476 674.115446 917.783629 595.199143 C 924.328121 581.771463 931.593709 566.584745 947.905773 553.015031 C 959.08276 543.837446 971.636385 537.314806 985.566647 533.425258 C 991.925402 535.6541 997.453804 539.1831 1002.162779 544.001332 C 1011.154627 553.32095 1013.208658 564.650897 1014.213822 571.107984 C 1022.211432 623.00504 1017.218388 656.99488 1017.218388 656.99488 Z M 1017.218388 656.99488 " stroke="#d42300" stroke-width="1" stroke-opacity="1" stroke-miterlimit="10"/><path fill="#5005f2" d="M 774.625 244.0625 C 773.691406 244.144531 773.496094 242.078125 770.859375 238.675781 C 768.21875 235.273438 766.359375 234.742188 766.550781 233.292969 C 766.761719 231.679688 769.082031 231.765625 772.472656 228.980469 C 775.757812 226.285156 776.453125 223.847656 777.320312 224.132812 C 778.492188 224.515625 777.90625 229.183594 777.320312 233.828125 C 776.664062 239.046875 776.050781 243.933594 774.625 244.0625 Z M 774.625 244.0625 " fill-opacity="1" fill-rule="nonzero"/><g clip-path="url(#16ae48f76d)"><path fill="#5005f2" d="M 962.066406 98.09375 C 961.890625 97.613281 961.328125 96.097656 959.921875 95.402344 C 958.199219 94.554688 956.234375 95.402344 955.074219 95.9375 C 949.648438 98.46875 946.9375 99.730469 943.761719 102.941406 C 938.457031 108.304688 928.386719 110.832031 908.214844 115.867188 C 894.148438 119.382812 894.757812 117.558594 887.207031 119.640625 C 885.0625 120.226562 882.375 120.210938 876.972656 120.179688 C 876.144531 120.179688 874.59375 120.144531 873.753906 119.105469 C 873.601562 118.921875 873.039062 118.171875 873.21875 115.890625 C 873.328125 114.390625 873.6875 112.957031 874.289062 111.582031 C 875.921875 108.144531 876.597656 104.320312 878.0625 100.808594 C 880.8125 94.21875 880.261719 92.226562 883.988281 80.339844 C 886.875 71.121094 889.808594 64.011719 891.527344 59.875 C 893.757812 54.511719 895.492188 50.328125 897.992188 45.332031 C 899.679688 41.957031 900.464844 38.035156 902.835938 35.097656 C 903.265625 34.566406 904.429688 33.199219 904.453125 31.328125 C 904.46875 30.007812 903.914062 28.996094 903.378906 28.109375 C 900.769531 23.761719 898.53125 21.644531 898.53125 21.644531 C 895.636719 18.90625 893.488281 17.429688 890.453125 15.183594 C 882.820312 9.53125 883.125 9.046875 879.144531 6.5625 C 876.609375 4.988281 873.519531 3.0625 869.445312 1.714844 C 860.257812 -1.320312 852.058594 0.5625 849.519531 1.179688 C 840.191406 3.4375 834.40625 8.613281 830.664062 11.953125 C 826.296875 15.808594 822.695312 20.285156 819.871094 25.382812 C 817.589844 29.632812 815.976562 34.121094 815.023438 38.847656 C 809.597656 64.296875 794.265625 126.734375 792.941406 132.03125 C 790.269531 142.730469 788.292969 146.292969 788.628906 150.882812 C 788.695312 151.707031 788.957031 154.136719 787.558594 156.269531 C 787.019531 157.09375 786.148438 157.992188 783.25 159.488281 C 781.175781 160.582031 779.023438 161.476562 776.785156 162.179688 C 767.652344 164.789062 768.5625 165.636719 762.242188 167.027344 C 753.027344 169.054688 753.863281 166.648438 746.625 168.644531 C 744.90625 169.117188 741.457031 170.191406 738.542969 168.644531 C 738.074219 168.394531 736.910156 167.757812 736.398438 166.496094 C 735.683594 164.726562 736.644531 162.800781 736.9375 162.1875 C 739.0625 157.738281 738.554688 152.457031 739.632812 147.644531 C 741.871094 137.632812 742.992188 132.628906 743.402344 130.949219 C 748.304688 110.734375 747.164062 111.285156 750.402344 99.167969 C 753.800781 86.449219 760.214844 66.488281 762.792969 60.386719 C 763.964844 57.617188 764.277344 54.527344 765.484375 51.769531 C 766.003906 50.753906 766.183594 49.683594 766.023438 48.550781 C 765.695312 46.796875 764.347656 45.714844 763.878906 45.335938 C 759.652344 41.855469 761.964844 41.691406 753.105469 34.5625 C 746.703125 29.40625 742.988281 26.421875 736.949219 23.789062 C 733.539062 22.304688 730.460938 20.964844 726.175781 20.570312 C 718.667969 19.855469 712.839844 22.511719 708.941406 24.34375 C 697.667969 29.636719 691.335938 38.03125 687.9375 42.65625 C 681.992188 50.734375 679.332031 57.859375 676.625 65.277344 C 674.160156 72.027344 673.472656 75.574219 666.925781 107.289062 C 664.160156 120.703125 664.027344 121.308594 663.160156 125.601562 C 661.484375 133.882812 659.585938 143.359375 657.230469 155.769531 C 653.394531 176.175781 651.480469 186.378906 651.308594 189.160156 C 650.949219 194.964844 648.445312 200.585938 648.613281 206.398438 C 648.640625 207.195312 648.78125 210.015625 647 211.78125 C 646.511719 212.21875 645.972656 212.574219 645.382812 212.855469 C 643.339844 213.96875 641.960938 214.324219 640 215 C 636.378906 216.261719 635.859375 216.882812 633.535156 217.144531 C 631.867188 217.339844 630.972656 217.144531 630.316406 216.605469 C 629.6875 216.027344 629.328125 215.3125 629.246094 214.460938 L 628.707031 211.765625 C 628.433594 210.40625 626.980469 205.777344 622.785156 200.457031 C 619.847656 196.738281 617.242188 193.429688 612.546875 191.300781 C 607.140625 188.84375 602.125 189.382812 599.621094 189.683594 C 589.296875 190.921875 582.328125 197.441406 578.078125 201.53125 C 566.578125 212.589844 562.347656 225.277344 559.761719 233.3125 C 557.578125 240.105469 553.460938 253.425781 555.992188 269.398438 C 557.199219 277.015625 560.433594 288.496094 564.609375 291.484375 C 567.300781 293.40625 568.019531 294.5625 569.457031 296.867188 C 569.992188 297.695312 570.347656 298.59375 570.53125 299.5625 C 570.675781 300.460938 570.675781 301.355469 570.53125 302.253906 C 568.691406 312.980469 561.375 325.414062 561.375 325.414062 C 552.246094 340.941406 552.378906 343.585938 546.292969 349.652344 C 539.539062 356.390625 536.101562 356.410156 534.445312 356.117188 C 530.242188 355.371094 527.652344 350.855469 526.367188 348.578125 C 524.171875 344.734375 523.589844 341.136719 523.148438 336.1875 C 522.035156 324.152344 522.609375 316.257812 522.609375 316.257812 C 522.9375 311.765625 523.628906 304.484375 526.378906 289.867188 C 529.652344 272.464844 533.03125 259.585938 534.460938 254.316406 C 535.886719 249.046875 537.796875 242.027344 540.925781 232.773438 C 542.566406 227.910156 544.816406 221.285156 548.464844 212.84375 C 551.347656 206.164062 553.4375 202.285156 557.621094 194.53125 C 560.066406 189.992188 563.183594 184.464844 568.933594 180.527344 C 571.097656 179.039062 573.125 178.136719 575.394531 178.382812 C 577.808594 178.636719 580.300781 180.167969 581.855469 182.152344 C 583.320312 184.015625 583.203125 185.316406 584.550781 185.921875 C 586.070312 186.605469 587.933594 185.730469 589.398438 184.847656 C 596.96875 180.28125 601.25 172.460938 601.25 172.460938 C 604.824219 165.925781 609.472656 157.445312 607.710938 146.066406 C 607.238281 142.992188 606.363281 140.039062 605.082031 137.203125 C 603.800781 134.371094 602.164062 131.757812 600.167969 129.371094 C 590.351562 117.753906 575.914062 117.121094 572.699219 116.984375 C 561.5625 116.496094 552.652344 120.75 546.308594 124.523438 C 534.089844 131.789062 512.472656 148.527344 487.058594 192.929688 C 479.003906 207.015625 471.949219 221.585938 465.894531 236.644531 C 459.84375 251.699219 454.851562 267.097656 450.914062 282.839844 C 444.953125 306.914062 444.121094 321.527344 444.453125 332.933594 C 444.808594 345.53125 445.40625 361.222656 453.609375 379.253906 C 457.183594 387.121094 464.761719 403.25 482.15625 415.34375 C 488.179688 419.535156 497.332031 425.738281 510.703125 427.191406 C 527.886719 429.066406 541.511719 421.957031 546.789062 419.113281 C 551.976562 416.324219 555.433594 413.59375 558.640625 411.035156 C 565.359375 405.671875 573.710938 397.746094 585.03125 381.410156 C 604.894531 352.753906 615.710938 324.480469 617.890625 314.082031 C 618.914062 309.179688 620.441406 304.394531 621.65625 299.542969 C 622.394531 296.371094 623.464844 293.320312 624.875 290.386719 C 625.824219 288.4375 626.597656 286.863281 628.09375 284.996094 C 631.3125 281.007812 633.6875 280.949219 636.171875 278.53125 C 636.351562 278.359375 636.855469 277.855469 637.246094 277.996094 C 637.71875 278.160156 637.769531 279.160156 637.785156 279.613281 C 637.9375 284.109375 637.246094 286.613281 637.246094 286.613281 C 636.472656 289.402344 636.601562 292.367188 636.171875 295.230469 C 630.480469 332.878906 632.957031 382.488281 632.957031 382.488281 C 634.699219 415.578125 635.894531 434.328125 646.960938 454.125 C 658.910156 475.492188 671.371094 478.394531 673.890625 478.902344 C 680.398438 480.207031 688.003906 479.054688 688.972656 478.902344 C 692.574219 478.332031 698.707031 476.941406 706.746094 472.4375 C 729.25 459.820312 746.074219 435.8125 746.074219 435.8125 C 755.90625 421.777344 760.351562 410.183594 768.695312 388.414062 C 774.847656 372.367188 777.816406 359.144531 777.851562 357.710938 C 777.90625 356.789062 778.085938 355.890625 778.390625 355.019531 C 778.597656 354.304688 778.75 353.945312 778.929688 353.945312 C 779.207031 353.945312 779.414062 354.808594 779.46875 355.019531 C 779.921875 356.804688 784.082031 370.941406 789.164062 378.714844 C 790.816406 381.246094 794.015625 386.011719 799.9375 388.414062 C 803.773438 389.96875 807.445312 390.003906 810.167969 390.027344 C 814.015625 390.027344 817.785156 389.488281 821.480469 388.414062 C 821.480469 388.414062 823.953125 387.738281 826.328125 386.796875 C 857.925781 374.28125 887.195312 313.003906 887.195312 313.003906 C 889.902344 307.332031 903.34375 278.726562 910.890625 240.832031 C 910.890625 240.832031 917.164062 209.335938 909.273438 188.582031 C 906.613281 181.582031 905.28125 178.078125 902.8125 176.195312 C 901.640625 175.304688 899.066406 173.691406 899.042969 171.347656 C 899.042969 170.671875 899.242188 169.875 900.113281 168.652344 C 902.5625 165.25 906.339844 163.894531 906.578125 163.804688 C 910.4375 162.414062 913.195312 158.703125 928.664062 144.957031 C 945.304688 130.160156 953.050781 124.726562 957.207031 116.949219 C 958.898438 113.789062 957.898438 114.164062 961.519531 104.558594 C 962.046875 103.1875 963.019531 100.660156 962.066406 98.09375 Z M 723.460938 362.019531 C 719.5 367.335938 712.230469 377.101562 707.300781 375.488281 C 704.582031 374.597656 701.148438 369.765625 705.15625 317.855469 C 707.875 282.519531 709.324219 264.835938 713.773438 263.992188 C 721.53125 262.519531 737.425781 290.761719 737.472656 318.929688 C 737.472656 323.390625 737.105469 343.683594 723.460938 362.019531 Z M 869.707031 247.539062 C 869.421875 251.363281 867.78125 268.734375 854.878906 283.550781 C 851.132812 287.84375 844.261719 295.742188 840.144531 294.03125 C 837.871094 293.089844 835.246094 288.742188 842.082031 244.496094 C 846.730469 214.386719 849.136719 199.324219 853.003906 198.898438 C 859.75 198.140625 871.515625 223.394531 869.707031 247.539062 Z M 869.707031 247.539062 " fill-opacity="1" fill-rule="nonzero"/></g><g clip-path="url(#d21ab0edd6)"><g transform="matrix(1, 0, 0, 1, -0.000000000000003553, 421)"><g clip-path="url(#6b10ad8fa9)"><g fill="#e0f7fa" fill-opacity="1"><g transform="translate(0.906402, 62.991083)"><g><path d="M 23.53125 0.671875 C 19.40625 0.671875 15.894531 -0.0390625 13 -1.46875 C 10.113281 -2.90625 7.875 -4.976562 6.28125 -7.6875 C 4.695312 -10.40625 3.835938 -13.644531 3.703125 -17.40625 C 3.648438 -19.332031 3.625 -21.40625 3.625 -23.625 C 3.625 -25.84375 3.648438 -27.9375 3.703125 -29.90625 C 3.835938 -33.625 4.695312 -36.804688 6.28125 -39.453125 C 7.875 -42.097656 10.140625 -44.132812 13.078125 -45.5625 C 16.015625 -47 19.5 -47.71875 23.53125 -47.71875 C 26.800781 -47.71875 29.664062 -47.28125 32.125 -46.40625 C 34.59375 -45.539062 36.644531 -44.421875 38.28125 -43.046875 C 39.914062 -41.679688 41.144531 -40.210938 41.96875 -38.640625 C 42.800781 -37.078125 43.238281 -35.625 43.28125 -34.28125 C 43.332031 -33.875 43.222656 -33.535156 42.953125 -33.265625 C 42.679688 -33.003906 42.320312 -32.875 41.875 -32.875 L 34.953125 -32.875 C 34.503906 -32.875 34.164062 -32.960938 33.9375 -33.140625 C 33.71875 -33.316406 33.519531 -33.585938 33.34375 -33.953125 C 32.976562 -34.890625 32.414062 -35.816406 31.65625 -36.734375 C 30.894531 -37.648438 29.863281 -38.421875 28.5625 -39.046875 C 27.269531 -39.679688 25.59375 -40 23.53125 -40 C 20.476562 -40 18.046875 -39.191406 16.234375 -37.578125 C 14.421875 -35.960938 13.445312 -33.296875 13.3125 -29.578125 C 13.175781 -25.679688 13.175781 -21.738281 13.3125 -17.75 C 13.445312 -13.9375 14.441406 -11.203125 16.296875 -9.546875 C 18.160156 -7.890625 20.613281 -7.0625 23.65625 -7.0625 C 25.675781 -7.0625 27.476562 -7.414062 29.0625 -8.125 C 30.65625 -8.84375 31.910156 -9.960938 32.828125 -11.484375 C 33.753906 -13.015625 34.21875 -14.96875 34.21875 -17.34375 L 34.21875 -19.421875 L 26.015625 -19.421875 C 25.566406 -19.421875 25.1875 -19.578125 24.875 -19.890625 C 24.5625 -20.210938 24.40625 -20.617188 24.40625 -21.109375 L 24.40625 -24.671875 C 24.40625 -25.160156 24.5625 -25.5625 24.875 -25.875 C 25.1875 -26.1875 25.566406 -26.34375 26.015625 -26.34375 L 42.078125 -26.34375 C 42.566406 -26.34375 42.957031 -26.1875 43.25 -25.875 C 43.539062 -25.5625 43.6875 -25.160156 43.6875 -24.671875 L 43.6875 -17.609375 C 43.6875 -13.847656 42.867188 -10.597656 41.234375 -7.859375 C 39.597656 -5.128906 37.265625 -3.023438 34.234375 -1.546875 C 31.210938 -0.0664062 27.644531 0.671875 23.53125 0.671875 Z M 23.53125 0.671875 "/></g></g></g><g fill="#e0f7fa" fill-opacity="1"><g transform="translate(47.961732, 62.991083)"><g><path d="M 19.5 0.671875 C 14.519531 0.671875 10.570312 -0.757812 7.65625 -3.625 C 4.75 -6.5 3.179688 -10.578125 2.953125 -15.859375 C 2.910156 -16.304688 2.890625 -16.878906 2.890625 -17.578125 C 2.890625 -18.273438 2.910156 -18.820312 2.953125 -19.21875 C 3.128906 -22.625 3.898438 -25.546875 5.265625 -27.984375 C 6.640625 -30.429688 8.535156 -32.316406 10.953125 -33.640625 C 13.378906 -34.960938 16.226562 -35.625 19.5 -35.625 C 23.125 -35.625 26.164062 -34.875 28.625 -33.375 C 31.09375 -31.875 32.953125 -29.789062 34.203125 -27.125 C 35.460938 -24.457031 36.09375 -21.375 36.09375 -17.875 L 36.09375 -16.46875 C 36.09375 -16.019531 35.9375 -15.640625 35.625 -15.328125 C 35.3125 -15.015625 34.910156 -14.859375 34.421875 -14.859375 L 12.09375 -14.859375 C 12.09375 -14.859375 12.09375 -14.789062 12.09375 -14.65625 C 12.09375 -14.519531 12.09375 -14.40625 12.09375 -14.3125 C 12.144531 -12.75 12.445312 -11.304688 13 -9.984375 C 13.5625 -8.660156 14.390625 -7.59375 15.484375 -6.78125 C 16.585938 -5.976562 17.898438 -5.578125 19.421875 -5.578125 C 20.679688 -5.578125 21.734375 -5.765625 22.578125 -6.140625 C 23.429688 -6.523438 24.125 -6.960938 24.65625 -7.453125 C 25.195312 -7.953125 25.582031 -8.359375 25.8125 -8.671875 C 26.21875 -9.210938 26.539062 -9.535156 26.78125 -9.640625 C 27.03125 -9.753906 27.398438 -9.8125 27.890625 -9.8125 L 33.671875 -9.8125 C 34.117188 -9.8125 34.488281 -9.675781 34.78125 -9.40625 C 35.070312 -9.132812 35.195312 -8.800781 35.15625 -8.40625 C 35.113281 -7.6875 34.742188 -6.8125 34.046875 -5.78125 C 33.347656 -4.75 32.347656 -3.738281 31.046875 -2.75 C 29.753906 -1.769531 28.128906 -0.953125 26.171875 -0.296875 C 24.222656 0.347656 22 0.671875 19.5 0.671875 Z M 12.09375 -20.5 L 26.953125 -20.5 L 26.953125 -20.703125 C 26.953125 -22.453125 26.660156 -23.988281 26.078125 -25.3125 C 25.492188 -26.632812 24.640625 -27.664062 23.515625 -28.40625 C 22.398438 -29.144531 21.0625 -29.515625 19.5 -29.515625 C 17.925781 -29.515625 16.578125 -29.144531 15.453125 -28.40625 C 14.335938 -27.664062 13.5 -26.632812 12.9375 -25.3125 C 12.375 -23.988281 12.09375 -22.453125 12.09375 -20.703125 Z M 12.09375 -20.5 "/></g></g></g><g fill="#e0f7fa" fill-opacity="1"><g transform="translate(86.748773, 62.991083)"><g><path d="M 17.671875 0.671875 C 14.984375 0.671875 12.6875 0.359375 10.78125 -0.265625 C 8.882812 -0.890625 7.328125 -1.671875 6.109375 -2.609375 C 4.898438 -3.554688 4.003906 -4.5 3.421875 -5.4375 C 2.835938 -6.382812 2.523438 -7.171875 2.484375 -7.796875 C 2.441406 -8.285156 2.585938 -8.675781 2.921875 -8.96875 C 3.253906 -9.257812 3.625 -9.40625 4.03125 -9.40625 L 9.34375 -9.40625 C 9.519531 -9.40625 9.675781 -9.382812 9.8125 -9.34375 C 9.945312 -9.300781 10.128906 -9.164062 10.359375 -8.9375 C 10.929688 -8.445312 11.539062 -7.929688 12.1875 -7.390625 C 12.84375 -6.859375 13.617188 -6.398438 14.515625 -6.015625 C 15.410156 -5.628906 16.53125 -5.4375 17.875 -5.4375 C 19.625 -5.4375 21.09375 -5.785156 22.28125 -6.484375 C 23.46875 -7.179688 24.0625 -8.179688 24.0625 -9.484375 C 24.0625 -10.421875 23.800781 -11.179688 23.28125 -11.765625 C 22.769531 -12.347656 21.816406 -12.875 20.421875 -13.34375 C 19.035156 -13.8125 17.066406 -14.316406 14.515625 -14.859375 C 12.003906 -15.441406 9.921875 -16.179688 8.265625 -17.078125 C 6.609375 -17.972656 5.375 -19.09375 4.5625 -20.4375 C 3.757812 -21.78125 3.359375 -23.347656 3.359375 -25.140625 C 3.359375 -26.890625 3.882812 -28.554688 4.9375 -30.140625 C 5.988281 -31.734375 7.554688 -33.046875 9.640625 -34.078125 C 11.722656 -35.109375 14.3125 -35.625 17.40625 -35.625 C 19.832031 -35.625 21.941406 -35.320312 23.734375 -34.71875 C 25.523438 -34.113281 27.015625 -33.363281 28.203125 -32.46875 C 29.390625 -31.570312 30.296875 -30.660156 30.921875 -29.734375 C 31.546875 -28.816406 31.878906 -28.023438 31.921875 -27.359375 C 31.972656 -26.867188 31.84375 -26.476562 31.53125 -26.1875 C 31.21875 -25.894531 30.859375 -25.75 30.453125 -25.75 L 25.46875 -25.75 C 25.25 -25.75 25.050781 -25.789062 24.875 -25.875 C 24.695312 -25.96875 24.515625 -26.082031 24.328125 -26.21875 C 23.835938 -26.664062 23.300781 -27.144531 22.71875 -27.65625 C 22.132812 -28.175781 21.425781 -28.613281 20.59375 -28.96875 C 19.769531 -29.332031 18.6875 -29.515625 17.34375 -29.515625 C 15.632812 -29.515625 14.332031 -29.144531 13.4375 -28.40625 C 12.539062 -27.664062 12.09375 -26.734375 12.09375 -25.609375 C 12.09375 -24.847656 12.304688 -24.1875 12.734375 -23.625 C 13.160156 -23.0625 14.023438 -22.535156 15.328125 -22.046875 C 16.628906 -21.554688 18.597656 -21.039062 21.234375 -20.5 C 24.242188 -19.957031 26.632812 -19.160156 28.40625 -18.109375 C 30.175781 -17.054688 31.425781 -15.847656 32.15625 -14.484375 C 32.894531 -13.117188 33.265625 -11.609375 33.265625 -9.953125 C 33.265625 -7.929688 32.671875 -6.113281 31.484375 -4.5 C 30.296875 -2.882812 28.546875 -1.617188 26.234375 -0.703125 C 23.929688 0.210938 21.078125 0.671875 17.671875 0.671875 Z M 17.671875 0.671875 "/></g></g></g><g fill="#e0f7fa" fill-opacity="1"><g transform="translate(122.510828, 62.991083)"><g><path d="M 20.234375 0 C 17.546875 0 15.28125 -0.46875 13.4375 -1.40625 C 11.601562 -2.351562 10.238281 -3.753906 9.34375 -5.609375 C 8.445312 -7.472656 8 -9.789062 8 -12.5625 L 8 -27.828125 L 2.6875 -27.828125 C 2.238281 -27.828125 1.859375 -27.984375 1.546875 -28.296875 C 1.234375 -28.609375 1.078125 -29.015625 1.078125 -29.515625 L 1.078125 -33.34375 C 1.078125 -33.789062 1.234375 -34.171875 1.546875 -34.484375 C 1.859375 -34.796875 2.238281 -34.953125 2.6875 -34.953125 L 8 -34.953125 L 8 -46.109375 C 8 -46.554688 8.144531 -46.9375 8.4375 -47.25 C 8.726562 -47.5625 9.117188 -47.71875 9.609375 -47.71875 L 15.0625 -47.71875 C 15.507812 -47.71875 15.890625 -47.5625 16.203125 -47.25 C 16.515625 -46.9375 16.671875 -46.554688 16.671875 -46.109375 L 16.671875 -34.953125 L 25.078125 -34.953125 C 25.523438 -34.953125 25.90625 -34.796875 26.21875 -34.484375 C 26.53125 -34.171875 26.6875 -33.789062 26.6875 -33.34375 L 26.6875 -29.515625 C 26.6875 -29.015625 26.53125 -28.609375 26.21875 -28.296875 C 25.90625 -27.984375 25.523438 -27.828125 25.078125 -27.828125 L 16.671875 -27.828125 L 16.671875 -13.234375 C 16.671875 -11.398438 16.992188 -9.96875 17.640625 -8.9375 C 18.296875 -7.90625 19.429688 -7.390625 21.046875 -7.390625 L 25.671875 -7.390625 C 26.117188 -7.390625 26.5 -7.234375 26.8125 -6.921875 C 27.132812 -6.609375 27.296875 -6.226562 27.296875 -5.78125 L 27.296875 -1.609375 C 27.296875 -1.160156 27.132812 -0.78125 26.8125 -0.46875 C 26.5 -0.15625 26.117188 0 25.671875 0 Z M 20.234375 0 "/></g></g></g><g fill="#e0f7fa" fill-opacity="1"><g transform="translate(151.349023, 62.991083)"><g><path d="M 14.59375 0.671875 C 12.257812 0.671875 10.148438 0.210938 8.265625 -0.703125 C 6.378906 -1.617188 4.890625 -2.847656 3.796875 -4.390625 C 2.703125 -5.941406 2.15625 -7.679688 2.15625 -9.609375 C 2.15625 -12.742188 3.429688 -15.238281 5.984375 -17.09375 C 8.535156 -18.957031 11.875 -20.207031 16 -20.84375 L 25.203125 -22.1875 L 25.203125 -23.59375 C 25.203125 -25.476562 24.734375 -26.9375 23.796875 -27.96875 C 22.859375 -29 21.242188 -29.515625 18.953125 -29.515625 C 17.335938 -29.515625 16.023438 -29.1875 15.015625 -28.53125 C 14.015625 -27.882812 13.265625 -27.023438 12.765625 -25.953125 C 12.410156 -25.367188 11.894531 -25.078125 11.21875 -25.078125 L 5.921875 -25.078125 C 5.421875 -25.078125 5.046875 -25.207031 4.796875 -25.46875 C 4.554688 -25.738281 4.4375 -26.097656 4.4375 -26.546875 C 4.476562 -27.265625 4.78125 -28.140625 5.34375 -29.171875 C 5.90625 -30.203125 6.753906 -31.195312 7.890625 -32.15625 C 9.035156 -33.125 10.523438 -33.941406 12.359375 -34.609375 C 14.203125 -35.285156 16.421875 -35.625 19.015625 -35.625 C 21.835938 -35.625 24.222656 -35.273438 26.171875 -34.578125 C 28.128906 -33.890625 29.6875 -32.960938 30.84375 -31.796875 C 32.007812 -30.628906 32.863281 -29.257812 33.40625 -27.6875 C 33.945312 -26.125 34.21875 -24.46875 34.21875 -22.71875 L 34.21875 -1.609375 C 34.21875 -1.160156 34.054688 -0.78125 33.734375 -0.46875 C 33.421875 -0.15625 33.039062 0 32.59375 0 L 27.15625 0 C 26.664062 0 26.273438 -0.15625 25.984375 -0.46875 C 25.691406 -0.78125 25.546875 -1.160156 25.546875 -1.609375 L 25.546875 -4.234375 C 24.960938 -3.429688 24.175781 -2.644531 23.1875 -1.875 C 22.207031 -1.113281 21.007812 -0.5 19.59375 -0.03125 C 18.1875 0.4375 16.519531 0.671875 14.59375 0.671875 Z M 16.875 -5.71875 C 18.4375 -5.71875 19.859375 -6.050781 21.140625 -6.71875 C 22.421875 -7.394531 23.429688 -8.4375 24.171875 -9.84375 C 24.910156 -11.257812 25.28125 -13.039062 25.28125 -15.1875 L 25.28125 -16.609375 L 18.546875 -15.53125 C 15.910156 -15.125 13.941406 -14.472656 12.640625 -13.578125 C 11.335938 -12.679688 10.6875 -11.582031 10.6875 -10.28125 C 10.6875 -9.300781 10.988281 -8.460938 11.59375 -7.765625 C 12.195312 -7.066406 12.96875 -6.550781 13.90625 -6.21875 C 14.851562 -5.882812 15.84375 -5.71875 16.875 -5.71875 Z M 22.71875 -39.65625 C 21.550781 -39.65625 20.609375 -39.84375 19.890625 -40.21875 C 19.171875 -40.601562 18.507812 -41 17.90625 -41.40625 C 17.300781 -41.8125 16.640625 -42.015625 15.921875 -42.015625 C 15.335938 -42.015625 14.921875 -41.84375 14.671875 -41.5 C 14.429688 -41.164062 14.195312 -40.832031 13.96875 -40.5 C 13.75 -40.164062 13.394531 -40 12.90625 -40 L 9.8125 -40 C 9.5 -40 9.226562 -40.109375 9 -40.328125 C 8.78125 -40.554688 8.671875 -40.828125 8.671875 -41.140625 C 8.671875 -41.804688 8.789062 -42.554688 9.03125 -43.390625 C 9.28125 -44.222656 9.671875 -45.019531 10.203125 -45.78125 C 10.742188 -46.539062 11.425781 -47.15625 12.25 -47.625 C 13.082031 -48.09375 14.0625 -48.328125 15.1875 -48.328125 C 16.394531 -48.328125 17.359375 -48.132812 18.078125 -47.75 C 18.796875 -47.375 19.457031 -46.984375 20.0625 -46.578125 C 20.664062 -46.179688 21.328125 -45.984375 22.046875 -45.984375 C 22.628906 -45.984375 23.039062 -46.160156 23.28125 -46.515625 C 23.53125 -46.867188 23.765625 -47.210938 23.984375 -47.546875 C 24.210938 -47.890625 24.570312 -48.0625 25.0625 -48.0625 L 28.15625 -48.0625 C 28.519531 -48.0625 28.800781 -47.9375 29 -47.6875 C 29.195312 -47.445312 29.296875 -47.164062 29.296875 -46.84375 C 29.296875 -46.175781 29.171875 -45.425781 28.921875 -44.59375 C 28.679688 -43.769531 28.289062 -42.976562 27.75 -42.21875 C 27.21875 -41.457031 26.535156 -40.835938 25.703125 -40.359375 C 24.878906 -39.890625 23.882812 -39.65625 22.71875 -39.65625 Z M 22.71875 -39.65625 "/></g></g></g><g fill="#e0f7fa" fill-opacity="1"><g transform="translate(189.732721, 62.991083)"><g><path d="M 19.890625 0.671875 C 16.304688 0.671875 13.289062 0.046875 10.84375 -1.203125 C 8.40625 -2.460938 6.546875 -4.234375 5.265625 -6.515625 C 3.992188 -8.804688 3.269531 -11.472656 3.09375 -14.515625 C 3.050781 -15.328125 3.03125 -16.3125 3.03125 -17.46875 C 3.03125 -18.632812 3.050781 -19.625 3.09375 -20.4375 C 3.269531 -23.53125 4.019531 -26.207031 5.34375 -28.46875 C 6.664062 -30.726562 8.546875 -32.484375 10.984375 -33.734375 C 13.429688 -34.992188 16.398438 -35.625 19.890625 -35.625 C 23.390625 -35.625 26.359375 -34.992188 28.796875 -33.734375 C 31.242188 -32.484375 33.128906 -30.726562 34.453125 -28.46875 C 35.773438 -26.207031 36.523438 -23.53125 36.703125 -20.4375 C 36.742188 -19.625 36.765625 -18.632812 36.765625 -17.46875 C 36.765625 -16.3125 36.742188 -15.328125 36.703125 -14.515625 C 36.523438 -11.472656 35.796875 -8.804688 34.515625 -6.515625 C 33.234375 -4.234375 31.375 -2.460938 28.9375 -1.203125 C 26.5 0.046875 23.484375 0.671875 19.890625 0.671875 Z M 19.890625 -5.984375 C 22.265625 -5.984375 24.101562 -6.734375 25.40625 -8.234375 C 26.707031 -9.734375 27.425781 -11.941406 27.5625 -14.859375 C 27.601562 -15.523438 27.625 -16.394531 27.625 -17.46875 C 27.625 -18.550781 27.601562 -19.425781 27.5625 -20.09375 C 27.425781 -23.007812 26.707031 -25.21875 25.40625 -26.71875 C 24.101562 -28.21875 22.265625 -28.96875 19.890625 -28.96875 C 17.515625 -28.96875 15.675781 -28.21875 14.375 -26.71875 C 13.082031 -25.21875 12.367188 -23.007812 12.234375 -20.09375 C 12.191406 -19.425781 12.171875 -18.550781 12.171875 -17.46875 C 12.171875 -16.394531 12.191406 -15.523438 12.234375 -14.859375 C 12.367188 -11.941406 13.082031 -9.734375 14.375 -8.234375 C 15.675781 -6.734375 17.515625 -5.984375 19.890625 -5.984375 Z M 19.890625 -5.984375 "/></g></g></g><g fill="#e0f7fa" fill-opacity="1"><g transform="translate(229.528092, 62.991083)"><g/></g></g><g fill="#e0f7fa" fill-opacity="1"><g transform="translate(244.921911, 62.991083)"><g><path d="M 17.40625 0.671875 C 15.082031 0.671875 13.035156 0.28125 11.265625 -0.5 C 9.492188 -1.289062 8.023438 -2.398438 6.859375 -3.828125 C 5.691406 -5.265625 4.789062 -6.957031 4.15625 -8.90625 C 3.53125 -10.851562 3.175781 -12.992188 3.09375 -15.328125 C 3.050781 -16.128906 3.03125 -16.851562 3.03125 -17.5 C 3.03125 -18.15625 3.050781 -18.882812 3.09375 -19.6875 C 3.175781 -21.9375 3.519531 -24.023438 4.125 -25.953125 C 4.738281 -27.878906 5.640625 -29.566406 6.828125 -31.015625 C 8.015625 -32.472656 9.492188 -33.601562 11.265625 -34.40625 C 13.035156 -35.21875 15.082031 -35.625 17.40625 -35.625 C 19.832031 -35.625 21.882812 -35.207031 23.5625 -34.375 C 25.238281 -33.550781 26.640625 -32.488281 27.765625 -31.1875 L 27.765625 -46.109375 C 27.765625 -46.554688 27.910156 -46.9375 28.203125 -47.25 C 28.492188 -47.5625 28.882812 -47.71875 29.375 -47.71875 L 35.09375 -47.71875 C 35.539062 -47.71875 35.921875 -47.5625 36.234375 -47.25 C 36.546875 -46.9375 36.703125 -46.554688 36.703125 -46.109375 L 36.703125 -1.609375 C 36.703125 -1.160156 36.546875 -0.78125 36.234375 -0.46875 C 35.921875 -0.15625 35.539062 0 35.09375 0 L 29.78125 0 C 29.28125 0 28.882812 -0.15625 28.59375 -0.46875 C 28.3125 -0.78125 28.171875 -1.160156 28.171875 -1.609375 L 28.171875 -4.09375 C 27.046875 -2.707031 25.617188 -1.566406 23.890625 -0.671875 C 22.171875 0.222656 20.007812 0.671875 17.40625 0.671875 Z M 19.890625 -6.515625 C 21.773438 -6.515625 23.273438 -6.941406 24.390625 -7.796875 C 25.515625 -8.648438 26.34375 -9.738281 26.875 -11.0625 C 27.414062 -12.382812 27.710938 -13.738281 27.765625 -15.125 C 27.804688 -15.925781 27.828125 -16.785156 27.828125 -17.703125 C 27.828125 -18.628906 27.804688 -19.492188 27.765625 -20.296875 C 27.710938 -21.640625 27.394531 -22.925781 26.8125 -24.15625 C 26.238281 -25.394531 25.390625 -26.414062 24.265625 -27.21875 C 23.140625 -28.03125 21.679688 -28.4375 19.890625 -28.4375 C 18.015625 -28.4375 16.523438 -28.019531 15.421875 -27.1875 C 14.328125 -26.363281 13.53125 -25.273438 13.03125 -23.921875 C 12.539062 -22.578125 12.253906 -21.101562 12.171875 -19.5 C 12.117188 -18.15625 12.117188 -16.804688 12.171875 -15.453125 C 12.253906 -13.847656 12.539062 -12.367188 13.03125 -11.015625 C 13.53125 -9.671875 14.328125 -8.582031 15.421875 -7.75 C 16.523438 -6.925781 18.015625 -6.515625 19.890625 -6.515625 Z M 19.890625 -6.515625 "/></g></g></g><g fill="#e0f7fa" fill-opacity="1"><g transform="translate(286.128939, 62.991083)"><g><path d="M 19.5 0.671875 C 14.519531 0.671875 10.570312 -0.757812 7.65625 -3.625 C 4.75 -6.5 3.179688 -10.578125 2.953125 -15.859375 C 2.910156 -16.304688 2.890625 -16.878906 2.890625 -17.578125 C 2.890625 -18.273438 2.910156 -18.820312 2.953125 -19.21875 C 3.128906 -22.625 3.898438 -25.546875 5.265625 -27.984375 C 6.640625 -30.429688 8.535156 -32.316406 10.953125 -33.640625 C 13.378906 -34.960938 16.226562 -35.625 19.5 -35.625 C 23.125 -35.625 26.164062 -34.875 28.625 -33.375 C 31.09375 -31.875 32.953125 -29.789062 34.203125 -27.125 C 35.460938 -24.457031 36.09375 -21.375 36.09375 -17.875 L 36.09375 -16.46875 C 36.09375 -16.019531 35.9375 -15.640625 35.625 -15.328125 C 35.3125 -15.015625 34.910156 -14.859375 34.421875 -14.859375 L 12.09375 -14.859375 C 12.09375 -14.859375 12.09375 -14.789062 12.09375 -14.65625 C 12.09375 -14.519531 12.09375 -14.40625 12.09375 -14.3125 C 12.144531 -12.75 12.445312 -11.304688 13 -9.984375 C 13.5625 -8.660156 14.390625 -7.59375 15.484375 -6.78125 C 16.585938 -5.976562 17.898438 -5.578125 19.421875 -5.578125 C 20.679688 -5.578125 21.734375 -5.765625 22.578125 -6.140625 C 23.429688 -6.523438 24.125 -6.960938 24.65625 -7.453125 C 25.195312 -7.953125 25.582031 -8.359375 25.8125 -8.671875 C 26.21875 -9.210938 26.539062 -9.535156 26.78125 -9.640625 C 27.03125 -9.753906 27.398438 -9.8125 27.890625 -9.8125 L 33.671875 -9.8125 C 34.117188 -9.8125 34.488281 -9.675781 34.78125 -9.40625 C 35.070312 -9.132812 35.195312 -8.800781 35.15625 -8.40625 C 35.113281 -7.6875 34.742188 -6.8125 34.046875 -5.78125 C 33.347656 -4.75 32.347656 -3.738281 31.046875 -2.75 C 29.753906 -1.769531 28.128906 -0.953125 26.171875 -0.296875 C 24.222656 0.347656 22 0.671875 19.5 0.671875 Z M 12.09375 -20.5 L 26.953125 -20.5 L 26.953125 -20.703125 C 26.953125 -22.453125 26.660156 -23.988281 26.078125 -25.3125 C 25.492188 -26.632812 24.640625 -27.664062 23.515625 -28.40625 C 22.398438 -29.144531 21.0625 -29.515625 19.5 -29.515625 C 17.925781 -29.515625 16.578125 -29.144531 15.453125 -28.40625 C 14.335938 -27.664062 13.5 -26.632812 12.9375 -25.3125 C 12.375 -23.988281 12.09375 -22.453125 12.09375 -20.703125 Z M 12.09375 -20.5 "/></g></g></g><g fill="#e0f7fa" fill-opacity="1"><g transform="translate(324.915995, 62.991083)"><g/></g></g><g fill="#f205e2" fill-opacity="1"><g transform="translate(340.315795, 62.991083)"><g><path d="M 21.109375 0.671875 C 15.234375 0.671875 10.554688 -0.769531 7.078125 -3.65625 C 3.609375 -6.550781 1.875 -11.132812 1.875 -17.40625 C 1.875 -17.5 1.875 -17.585938 1.875 -17.671875 C 1.875 -17.765625 1.875 -17.832031 1.875 -17.875 C 1.96875 -21.726562 2.8125 -24.976562 4.40625 -27.625 C 6 -30.269531 8.21875 -32.265625 11.0625 -33.609375 C 13.90625 -34.953125 17.234375 -35.625 21.046875 -35.625 C 25.429688 -35.625 29.035156 -34.78125 31.859375 -33.09375 C 34.679688 -31.414062 36.773438 -29.195312 38.140625 -26.4375 C 39.515625 -23.6875 40.203125 -20.65625 40.203125 -17.34375 L 40.203125 -15.328125 C 40.203125 -14.835938 40.019531 -14.410156 39.65625 -14.046875 C 39.300781 -13.691406 38.875 -13.515625 38.375 -13.515625 L 18.34375 -13.515625 C 18.34375 -13.460938 18.34375 -13.414062 18.34375 -13.375 C 18.34375 -13.332031 18.34375 -13.265625 18.34375 -13.171875 C 18.34375 -12.273438 18.421875 -11.523438 18.578125 -10.921875 C 18.742188 -10.316406 19.023438 -9.859375 19.421875 -9.546875 C 19.828125 -9.234375 20.34375 -9.078125 20.96875 -9.078125 C 21.238281 -9.078125 21.472656 -9.117188 21.671875 -9.203125 C 21.878906 -9.296875 22.082031 -9.441406 22.28125 -9.640625 C 22.476562 -9.847656 22.691406 -10.0625 22.921875 -10.28125 C 23.328125 -10.6875 23.660156 -10.941406 23.921875 -11.046875 C 24.191406 -11.160156 24.597656 -11.21875 25.140625 -11.21875 L 37.84375 -11.21875 C 38.289062 -11.21875 38.660156 -11.082031 38.953125 -10.8125 C 39.242188 -10.550781 39.367188 -10.195312 39.328125 -9.75 C 39.273438 -8.894531 38.878906 -7.875 38.140625 -6.6875 C 37.398438 -5.5 36.289062 -4.34375 34.8125 -3.21875 C 33.332031 -2.101562 31.453125 -1.175781 29.171875 -0.4375 C 26.890625 0.300781 24.203125 0.671875 21.109375 0.671875 Z M 18.34375 -21.90625 L 23.734375 -21.90625 L 23.734375 -21.984375 C 23.734375 -22.960938 23.628906 -23.765625 23.421875 -24.390625 C 23.222656 -25.023438 22.921875 -25.488281 22.515625 -25.78125 C 22.109375 -26.070312 21.617188 -26.21875 21.046875 -26.21875 C 20.460938 -26.21875 19.96875 -26.070312 19.5625 -25.78125 C 19.15625 -25.488281 18.847656 -25.023438 18.640625 -24.390625 C 18.441406 -23.765625 18.34375 -22.960938 18.34375 -21.984375 Z M 18.34375 -21.90625 "/></g></g></g><g fill="#f205e2" fill-opacity="1"><g transform="translate(382.195037, 62.991083)"><g><path d="M 15.796875 0 C 15.117188 0 14.632812 -0.175781 14.34375 -0.53125 C 14.0625 -0.894531 13.804688 -1.28125 13.578125 -1.6875 L 0.671875 -32.875 C 0.628906 -33.007812 0.609375 -33.164062 0.609375 -33.34375 C 0.609375 -33.789062 0.765625 -34.171875 1.078125 -34.484375 C 1.390625 -34.796875 1.769531 -34.953125 2.21875 -34.953125 L 13.578125 -34.953125 C 14.253906 -34.953125 14.757812 -34.769531 15.09375 -34.40625 C 15.425781 -34.050781 15.660156 -33.695312 15.796875 -33.34375 L 21.171875 -17.671875 L 26.546875 -33.34375 C 26.679688 -33.695312 26.914062 -34.050781 27.25 -34.40625 C 27.59375 -34.769531 28.097656 -34.953125 28.765625 -34.953125 L 40.125 -34.953125 C 40.570312 -34.953125 40.953125 -34.796875 41.265625 -34.484375 C 41.585938 -34.171875 41.75 -33.789062 41.75 -33.34375 C 41.75 -33.164062 41.722656 -33.007812 41.671875 -32.875 L 28.765625 -1.6875 C 28.585938 -1.28125 28.34375 -0.894531 28.03125 -0.53125 C 27.71875 -0.175781 27.222656 0 26.546875 0 Z M 15.796875 0 "/></g></g></g><g fill="#f205e2" fill-opacity="1"><g transform="translate(424.544837, 62.991083)"><g><path d="M 21.109375 0.671875 C 15.234375 0.671875 10.554688 -0.769531 7.078125 -3.65625 C 3.609375 -6.550781 1.875 -11.132812 1.875 -17.40625 C 1.875 -17.5 1.875 -17.585938 1.875 -17.671875 C 1.875 -17.765625 1.875 -17.832031 1.875 -17.875 C 1.96875 -21.726562 2.8125 -24.976562 4.40625 -27.625 C 6 -30.269531 8.21875 -32.265625 11.0625 -33.609375 C 13.90625 -34.953125 17.234375 -35.625 21.046875 -35.625 C 25.429688 -35.625 29.035156 -34.78125 31.859375 -33.09375 C 34.679688 -31.414062 36.773438 -29.195312 38.140625 -26.4375 C 39.515625 -23.6875 40.203125 -20.65625 40.203125 -17.34375 L 40.203125 -15.328125 C 40.203125 -14.835938 40.019531 -14.410156 39.65625 -14.046875 C 39.300781 -13.691406 38.875 -13.515625 38.375 -13.515625 L 18.34375 -13.515625 C 18.34375 -13.460938 18.34375 -13.414062 18.34375 -13.375 C 18.34375 -13.332031 18.34375 -13.265625 18.34375 -13.171875 C 18.34375 -12.273438 18.421875 -11.523438 18.578125 -10.921875 C 18.742188 -10.316406 19.023438 -9.859375 19.421875 -9.546875 C 19.828125 -9.234375 20.34375 -9.078125 20.96875 -9.078125 C 21.238281 -9.078125 21.472656 -9.117188 21.671875 -9.203125 C 21.878906 -9.296875 22.082031 -9.441406 22.28125 -9.640625 C 22.476562 -9.847656 22.691406 -10.0625 22.921875 -10.28125 C 23.328125 -10.6875 23.660156 -10.941406 23.921875 -11.046875 C 24.191406 -11.160156 24.597656 -11.21875 25.140625 -11.21875 L 37.84375 -11.21875 C 38.289062 -11.21875 38.660156 -11.082031 38.953125 -10.8125 C 39.242188 -10.550781 39.367188 -10.195312 39.328125 -9.75 C 39.273438 -8.894531 38.878906 -7.875 38.140625 -6.6875 C 37.398438 -5.5 36.289062 -4.34375 34.8125 -3.21875 C 33.332031 -2.101562 31.453125 -1.175781 29.171875 -0.4375 C 26.890625 0.300781 24.203125 0.671875 21.109375 0.671875 Z M 18.34375 -21.90625 L 23.734375 -21.90625 L 23.734375 -21.984375 C 23.734375 -22.960938 23.628906 -23.765625 23.421875 -24.390625 C 23.222656 -25.023438 22.921875 -25.488281 22.515625 -25.78125 C 22.109375 -26.070312 21.617188 -26.21875 21.046875 -26.21875 C 20.460938 -26.21875 19.96875 -26.070312 19.5625 -25.78125 C 19.15625 -25.488281 18.847656 -25.023438 18.640625 -24.390625 C 18.441406 -23.765625 18.34375 -22.960938 18.34375 -21.984375 Z M 18.34375 -21.90625 "/></g></g></g><g fill="#f205e2" fill-opacity="1"><g transform="translate(466.424079, 62.991083)"><g><path d="M 4.84375 0 C 4.34375 0 3.914062 -0.175781 3.5625 -0.53125 C 3.207031 -0.894531 3.03125 -1.320312 3.03125 -1.8125 L 3.03125 -33.140625 C 3.03125 -33.628906 3.207031 -34.050781 3.5625 -34.40625 C 3.914062 -34.769531 4.34375 -34.953125 4.84375 -34.953125 L 16.609375 -34.953125 C 17.097656 -34.953125 17.519531 -34.769531 17.875 -34.40625 C 18.238281 -34.050781 18.421875 -33.628906 18.421875 -33.140625 L 18.421875 -30.921875 C 19.535156 -32.222656 21.078125 -33.332031 23.046875 -34.25 C 25.023438 -35.164062 27.203125 -35.625 29.578125 -35.625 C 31.859375 -35.625 33.984375 -35.085938 35.953125 -34.015625 C 37.929688 -32.941406 39.535156 -31.28125 40.765625 -29.03125 C 41.992188 -26.789062 42.609375 -23.90625 42.609375 -20.375 L 42.609375 -1.8125 C 42.609375 -1.320312 42.429688 -0.894531 42.078125 -0.53125 C 41.722656 -0.175781 41.296875 0 40.796875 0 L 27.96875 0 C 27.46875 0 27.035156 -0.175781 26.671875 -0.53125 C 26.316406 -0.894531 26.140625 -1.320312 26.140625 -1.8125 L 26.140625 -19.890625 C 26.140625 -21.109375 25.847656 -22.03125 25.265625 -22.65625 C 24.691406 -23.28125 23.863281 -23.59375 22.78125 -23.59375 C 21.707031 -23.59375 20.878906 -23.28125 20.296875 -22.65625 C 19.710938 -22.03125 19.421875 -21.109375 19.421875 -19.890625 L 19.421875 -1.8125 C 19.421875 -1.320312 19.238281 -0.894531 18.875 -0.53125 C 18.519531 -0.175781 18.097656 0 17.609375 0 Z M 4.84375 0 "/></g></g></g><g fill="#f205e2" fill-opacity="1"><g transform="translate(511.731637, 62.991083)"><g><path d="M 24.671875 0 C 21.441406 0 18.5625 -0.4375 16.03125 -1.3125 C 13.5 -2.1875 11.503906 -3.675781 10.046875 -5.78125 C 8.585938 -7.882812 7.859375 -10.773438 7.859375 -14.453125 L 7.859375 -23.1875 L 2.546875 -23.1875 C 2.054688 -23.1875 1.628906 -23.363281 1.265625 -23.71875 C 0.910156 -24.082031 0.734375 -24.507812 0.734375 -25 L 0.734375 -33.140625 C 0.734375 -33.628906 0.910156 -34.050781 1.265625 -34.40625 C 1.628906 -34.769531 2.054688 -34.953125 2.546875 -34.953125 L 7.859375 -34.953125 L 7.859375 -45.90625 C 7.859375 -46.40625 8.035156 -46.832031 8.390625 -47.1875 C 8.753906 -47.539062 9.179688 -47.71875 9.671875 -47.71875 L 21.4375 -47.71875 C 21.9375 -47.71875 22.363281 -47.539062 22.71875 -47.1875 C 23.070312 -46.832031 23.25 -46.40625 23.25 -45.90625 L 23.25 -34.953125 L 31.734375 -34.953125 C 32.222656 -34.953125 32.644531 -34.769531 33 -34.40625 C 33.363281 -34.050781 33.546875 -33.628906 33.546875 -33.140625 L 33.546875 -25 C 33.546875 -24.507812 33.363281 -24.082031 33 -23.71875 C 32.644531 -23.363281 32.222656 -23.1875 31.734375 -23.1875 L 23.25 -23.1875 L 23.25 -15.796875 C 23.25 -14.765625 23.484375 -13.945312 23.953125 -13.34375 C 24.429688 -12.738281 25.160156 -12.4375 26.140625 -12.4375 L 32.265625 -12.4375 C 32.753906 -12.4375 33.175781 -12.253906 33.53125 -11.890625 C 33.894531 -11.535156 34.078125 -11.113281 34.078125 -10.625 L 34.078125 -1.8125 C 34.078125 -1.320312 33.894531 -0.894531 33.53125 -0.53125 C 33.175781 -0.175781 32.753906 0 32.265625 0 Z M 24.671875 0 "/></g></g></g><g fill="#f205e2" fill-opacity="1"><g transform="translate(547.493691, 62.991083)"><g><path d="M 21.578125 0.671875 C 17.453125 0.671875 13.976562 0.113281 11.15625 -1 C 8.332031 -2.125 6.171875 -3.804688 4.671875 -6.046875 C 3.171875 -8.285156 2.304688 -11.039062 2.078125 -14.3125 C 2.035156 -15.34375 2.015625 -16.40625 2.015625 -17.5 C 2.015625 -18.601562 2.035156 -19.648438 2.078125 -20.640625 C 2.304688 -23.953125 3.226562 -26.71875 4.84375 -28.9375 C 6.457031 -31.15625 8.675781 -32.820312 11.5 -33.9375 C 14.320312 -35.0625 17.679688 -35.625 21.578125 -35.625 C 25.472656 -35.625 28.832031 -35.0625 31.65625 -33.9375 C 34.476562 -32.820312 36.695312 -31.15625 38.3125 -28.9375 C 39.925781 -26.71875 40.847656 -23.953125 41.078125 -20.640625 C 41.160156 -19.648438 41.203125 -18.601562 41.203125 -17.5 C 41.203125 -16.40625 41.160156 -15.34375 41.078125 -14.3125 C 40.847656 -11.039062 39.984375 -8.285156 38.484375 -6.046875 C 36.984375 -3.804688 34.820312 -2.125 32 -1 C 29.175781 0.113281 25.703125 0.671875 21.578125 0.671875 Z M 21.578125 -10.078125 C 22.878906 -10.078125 23.6875 -10.445312 24 -11.1875 C 24.3125 -11.925781 24.515625 -13.082031 24.609375 -14.65625 C 24.648438 -15.320312 24.671875 -16.257812 24.671875 -17.46875 C 24.671875 -18.6875 24.648438 -19.628906 24.609375 -20.296875 C 24.515625 -21.773438 24.3125 -22.90625 24 -23.6875 C 23.6875 -24.476562 22.878906 -24.875 21.578125 -24.875 C 20.316406 -24.875 19.519531 -24.476562 19.1875 -23.6875 C 18.851562 -22.90625 18.640625 -21.773438 18.546875 -20.296875 C 18.503906 -19.628906 18.484375 -18.6875 18.484375 -17.46875 C 18.484375 -16.257812 18.503906 -15.320312 18.546875 -14.65625 C 18.640625 -13.082031 18.851562 -11.925781 19.1875 -11.1875 C 19.519531 -10.445312 20.316406 -10.078125 21.578125 -10.078125 Z M 21.578125 -10.078125 "/></g></g></g><g fill="#f205e2" fill-opacity="1"><g transform="translate(590.650163, 62.991083)"><g><path d="M 19.421875 0.671875 C 16.203125 0.671875 13.457031 0.347656 11.1875 -0.296875 C 8.925781 -0.953125 7.085938 -1.78125 5.671875 -2.78125 C 4.265625 -3.789062 3.222656 -4.84375 2.546875 -5.9375 C 1.878906 -7.039062 1.523438 -8.039062 1.484375 -8.9375 C 1.429688 -9.425781 1.570312 -9.847656 1.90625 -10.203125 C 2.25 -10.566406 2.644531 -10.75 3.09375 -10.75 L 14.78125 -10.75 C 14.832031 -10.75 14.878906 -10.75 14.921875 -10.75 C 14.960938 -10.75 15.007812 -10.75 15.0625 -10.75 C 15.644531 -10.707031 16.171875 -10.515625 16.640625 -10.171875 C 17.109375 -9.835938 17.597656 -9.515625 18.109375 -9.203125 C 18.628906 -8.890625 19.222656 -8.734375 19.890625 -8.734375 C 20.253906 -8.734375 20.601562 -8.820312 20.9375 -9 C 21.269531 -9.1875 21.4375 -9.4375 21.4375 -9.75 C 21.4375 -10.15625 21.3125 -10.515625 21.0625 -10.828125 C 20.820312 -11.140625 20.21875 -11.460938 19.25 -11.796875 C 18.289062 -12.128906 16.691406 -12.5 14.453125 -12.90625 C 12.390625 -13.3125 10.414062 -13.9375 8.53125 -14.78125 C 6.65625 -15.632812 5.125 -16.820312 3.9375 -18.34375 C 2.75 -19.875 2.15625 -21.800781 2.15625 -24.125 C 2.15625 -26.050781 2.800781 -27.890625 4.09375 -29.640625 C 5.394531 -31.390625 7.3125 -32.820312 9.84375 -33.9375 C 12.375 -35.0625 15.476562 -35.625 19.15625 -35.625 C 21.9375 -35.625 24.398438 -35.3125 26.546875 -34.6875 C 28.703125 -34.0625 30.53125 -33.253906 32.03125 -32.265625 C 33.53125 -31.273438 34.679688 -30.21875 35.484375 -29.09375 C 36.296875 -27.976562 36.722656 -26.953125 36.765625 -26.015625 C 36.804688 -25.523438 36.671875 -25.097656 36.359375 -24.734375 C 36.046875 -24.378906 35.691406 -24.203125 35.296875 -24.203125 L 24.671875 -24.203125 C 24.578125 -24.203125 24.460938 -24.203125 24.328125 -24.203125 C 24.191406 -24.203125 24.082031 -24.203125 24 -24.203125 C 23.375 -24.203125 22.8125 -24.367188 22.3125 -24.703125 C 21.820312 -25.035156 21.328125 -25.367188 20.828125 -25.703125 C 20.335938 -26.046875 19.757812 -26.21875 19.09375 -26.21875 C 18.78125 -26.21875 18.476562 -26.113281 18.1875 -25.90625 C 17.894531 -25.707031 17.75 -25.453125 17.75 -25.140625 C 17.75 -24.785156 17.878906 -24.4375 18.140625 -24.09375 C 18.410156 -23.757812 19.0625 -23.445312 20.09375 -23.15625 C 21.125 -22.863281 22.804688 -22.539062 25.140625 -22.1875 C 28.367188 -21.738281 30.945312 -20.90625 32.875 -19.6875 C 34.800781 -18.476562 36.175781 -17.085938 37 -15.515625 C 37.832031 -13.953125 38.25 -12.410156 38.25 -10.890625 C 38.25 -8.515625 37.519531 -6.453125 36.0625 -4.703125 C 34.601562 -2.953125 32.472656 -1.617188 29.671875 -0.703125 C 26.867188 0.210938 23.453125 0.671875 19.421875 0.671875 Z M 19.421875 0.671875 "/></g></g></g></g></g></g></g></g></g></svg>